<?xml version="1.0" standalone="no"?>
<!DOCTYPE svg PUBLIC "-//W3C//DTD SVG 1.1//EN" "http://www.w3.org/Graphics/SVG/1.1/DTD/svg11.dtd" >
<svg xmlns="http://www.w3.org/2000/svg" xmlns:xlink="http://www.w3.org/1999/xlink" version="1.1">
<metadata>
Created by FontForge 20170924 at Tue May 26 04:29:32 2020
 By root
2020 Iconian Fonts - www.iconian.com
</metadata>
<defs>
<font id="LaserCorpsGradient" horiz-adv-x="735" >
  <font-face 
    font-family="Laser Corps Gradient"
    font-weight="400"
    font-stretch="normal"
    units-per-em="1000"
    panose-1="0 0 0 0 0 0 0 0 0 0"
    ascent="800"
    descent="-200"
    x-height="617"
    cap-height="617"
    bbox="-96 -153 1134 787"
    underline-thickness="50"
    underline-position="-125"
    unicode-range="U+0020-2122"
  />
    <missing-glyph />
    <glyph glyph-name="space" unicode=" " horiz-adv-x="300" 
 />
    <glyph glyph-name="space" unicode="&#xa0;" horiz-adv-x="300" 
 />
    <glyph glyph-name="FL0021h" unicode="!" horiz-adv-x="287" 
d="M39 68h208q4 10 6.5 20.5t2.5 21.5h-225q0 -21 8 -42zM241 166h-197q-9 -18 -12 -39h223q-3 20 -14 39zM31 305h225v31h-225v-31zM100 8h85q35 14 54 45h-192q18 -31 53 -45zM31 364h225v28h-225v-28zM31 424h225v24h-225v-24zM31 483h225v22h-225v-22zM156 223h-27
q-43 -6 -71 -37h169q-28 31 -71 37zM31 542h225v19h-225v-19zM256 617h-225v-15h225v15z" />
    <glyph glyph-name="FL0022h" unicode="&#x22;" horiz-adv-x="555" 
d="M33 483h224v22h-226q0 -6 0.5 -11.5t1.5 -10.5zM301 483h223v22h-226q0 -12 3 -22zM68 424h189v24h-210q9 -14 21 -24zM336 424h188v24h-209q9 -14 21 -24zM36 542h221v19h-213q-5 -10 -8 -19zM303 542h221v19h-213q-5 -10 -8 -19zM257 308v28h-113v-28h113zM144 364h113
v28h-113v-28zM412 364h112v28h-112v-28zM524 308v28h-112v-28h112zM80 602h177v16h-140q-19 -4 -37 -16zM348 602h176v16h-139q-19 -4 -37 -16z" />
    <glyph glyph-name="FL0023h" unicode="#" horiz-adv-x="750" 
d="M31 246h688v33h-688v-33zM109 206v-20h223v20h85v-20h223v20h79v17h-688v-17h78zM31 364h688v28h-688v-28zM31 318v-13h688v13h-79v18h-223v-18h-85v18h-223v-18h-78zM31 424h688v24h-688v-24zM109 8h223v45h-223v-45zM417 8h223v45h-223v-45zM109 68h223v42h-223v-42z
M417 68h223v42h-223v-42zM109 127h223v39h-223v-39zM417 127h223v39h-223v-39zM109 483h223v22h-223v-22zM417 483h223v22h-223v-22zM109 542h223v19h-223v-19zM417 542h223v19h-223v-19zM332 617h-223v-15h223v15zM640 617h-223v-15h223v15z" />
    <glyph glyph-name="FL0024h" unicode="$" 
d="M689 53h-658v-45h605q34 14 53 45zM704 100v10h-673v-42h665q7 16 8 32zM31 127h673v39h-673v-39zM31 186h673v37h-673v-37zM73 305h629q-2 8 -5 15.5t-8 15.5h-644q5 -9 12.5 -16.5t15.5 -14.5zM33 364h633q-13 11 -29 18.5t-33 9.5h-573v-12q0 -5 0.5 -8.5t1.5 -7.5z
M31 483h673v22h-673v-22zM36 542h668v19h-659q-5 -8 -9 -19zM131 617q-23 -3 -44 -15h617v15h-281v1h-111v-1h-181zM481 246h223v33h-223v-33zM31 424h223v24h-223v-24zM312 -51h111v48h-111v-48zM312 246h111v33h-111v-33zM423 -87v27h-111v-27h111zM312 424h111v24h-111
v-24zM312 661h111v13h-111v-13z" />
    <glyph glyph-name="FL0025h" unicode="%" horiz-adv-x="837" 
d="M595 211h85v-25h126v37h-512l-10 -37h311v25zM806 258q-2 12 -7 21h-491l-8 -33h506v12zM80 307h236l-1 -2h456q-4 2 -8 2.5t-8 1.5h-236l-3 -1l7 28h-487q7 -12 19 -19.5t25 -9.5zM496 8h284q23 15 26 41v4h-337v-4q0 -13 8 -23.5t19 -17.5zM469 68h337v42h-337v-42z
M31 364h500l7 28h-507v-28zM469 130v-3h126v39h-316l-11 -39h200zM242 432h-85v16h-126v-24h516l6 24h-311v-16zM237 8h200l12 45h-200zM253 68h200l11 42h-200zM242 483h320l6 22h-199l-1 -4v4h-126v-22zM31 542h337v19h-337v-19zM680 127h126v39h-126v-39zM317 616h-237
q-8 -2 -16.5 -5t-15.5 -9h301q-14 11 -32 14zM378 542h200l5 19h-200zM598 617h-200l-4 -15h200zM31 483h126v22h-126v-22z" />
    <glyph glyph-name="FL0026h" unicode="&#x26;" horiz-adv-x="772" 
d="M38 68h635q7 15 9 32v10h-651v-10q0 -15 7 -32zM98 8h517q32 14 51 45h-620q18 -31 52 -45zM31 127h651v39h-651v-39zM254 222v1h-223v-37h651v37h-224v-1h-204zM308 305h433v31h-433v-31zM31 483h560v22h-560v-22zM741 392h-433v-28h433v28zM35 542h556v19h-547
q-5 -8 -9 -19zM458 246h224v33h-224v-33zM31 246h223v33h-223v-33zM591 617h-460q-25 -3 -46 -15h506v15zM41 305h213v31h-195l-1 -2q-4 -6 -8 -13.5t-9 -15.5zM41 364h213v28h-223v-5q1 -9 10 -23zM31 424h223v24h-223v-24z" />
    <glyph glyph-name="FL0027h" unicode="'" horiz-adv-x="288" 
d="M33 483h224v22h-226q0 -6 0.5 -11.5t1.5 -10.5zM68 424h189v24h-210q9 -14 21 -24zM36 542h221v19h-213q-5 -10 -8 -19zM257 308v28h-113v-28h113zM144 364h113v28h-113v-28zM80 602h177v16h-140q-19 -4 -37 -16z" />
    <glyph glyph-name="FL0028h" unicode="(" horiz-adv-x="462" 
d="M39 8h392v45h-400v-13q0 -16 8 -32zM99 -51h332v48h-386q9 -16 23 -28t31 -20zM31 68h400v42h-400v-42zM254 165v1h-223v-39h400v38h-177zM31 186h223v37h-223v-37zM31 542h400v19h-400v-19zM31 246h223v33h-223v-33zM31 305h223v31h-223v-31zM31 364h223v28h-223v-28z
M37 602h394v16h-386q-5 -8 -8 -16zM31 424h223v24h-223v-24zM31 483h223v22h-223v-22zM89 661h342v13h-307q-16 -3 -35 -13z" />
    <glyph glyph-name="FL0029h" unicode=")" horiz-adv-x="463" 
d="M432 40v13h-401v-45h392q3 8 5.5 16t3.5 16zM417 -3h-386v-48h333q35 16 53 48zM31 68h401v42h-401v-42zM31 165v-38h401v39h-224v-1h-177zM208 186h224v37h-224v-37zM31 542h401v19h-401v-19zM208 246h224v33h-224v-33zM208 305h224v31h-224v-31zM208 364h224v28h-224
v-28zM417 618h-386v-16h394q-3 8 -8 16zM208 424h224v24h-224v-24zM208 483h224v22h-224v-22zM339 674h-308v-13h342q-19 10 -34 13z" />
    <glyph glyph-name="FL002Ah" unicode="*" horiz-adv-x="287" 
d="M33 542h220q3 9 3 19h-225q0 -5 0.5 -9.5t1.5 -9.5zM65 483h154l10 10t9 12h-191q9 -14 18 -22zM242 618h-198q-2 -4 -3.5 -8t-3.5 -8h212q-2 4 -3.5 8t-3.5 8zM172 674h-59q-8 -2 -15.5 -5.5t-14.5 -7.5h118q-7 4 -14 7.5t-15 5.5z" />
    <glyph glyph-name="FL002Bh" unicode="+" horiz-adv-x="437" 
d="M31 305h375v31h-375v-31zM31 364h375v28h-375v-28zM163 186h112v37h-112v-37zM163 246h112v33h-112v-33zM163 424h112v24h-112v-24zM163 483h112v22h-112v-22zM275 160v6h-112v-6h112z" />
    <glyph glyph-name="FL002Ch" unicode="," horiz-adv-x="288" 
d="M39 68h218v42h-226q0 -21 8 -42zM100 8h157v45h-210q18 -31 53 -45zM247 166h-203q-9 -18 -12 -39h224q-2 22 -9 39zM144 -51h113v48h-113v-48zM161 223h-32q-43 -6 -71 -37h178q-14 17 -33 26t-42 11zM257 -89v29h-113v-29h113z" />
    <glyph glyph-name="FL002Dh" unicode="-" horiz-adv-x="401" 
d="M31 305h339v31h-339v-31zM31 364h339v28h-339v-28z" />
    <glyph glyph-name="FL002Eh" unicode="." horiz-adv-x="287" 
d="M39 68h208q4 10 6.5 20.5t2.5 21.5h-225q0 -21 8 -42zM241 166h-197q-9 -18 -12 -39h223q-3 20 -14 39zM100 8h85q35 14 54 45h-192q18 -31 53 -45zM156 223h-27q-43 -6 -71 -37h169q-28 31 -71 37z" />
    <glyph glyph-name="FL002Fh" unicode="/" horiz-adv-x="440" 
d="M33 8h224l11 45h-224zM47 68h224l11 42h-224zM62 127h224l10 39h-224zM77 186h224l9 37h-224zM92 246h224l8 33h-224zM107 305h224l7 31h-224zM121 364h224l7 28h-224zM136 424h224l6 24h-224zM151 483h224l6 22h-224zM166 542h224l5 19h-224zM181 602h224l4 15h-224z
" />
    <glyph glyph-name="O" unicode="0" horiz-adv-x="769" 
d="M733 223h-698q2 -10 4.5 -19t5.5 -18h678q3 9 5.5 18t4.5 19zM716 166h-664q5 -11 10.5 -20.5t11.5 -18.5h620q6 9 11.5 18.5t10.5 20.5zM681 110h-595q19 -24 42 -42h511q11 9 22 19.5t20 22.5zM618 53h-469q23 -16 50.5 -27.5t56.5 -17.5h255q29 6 56 17.5t51 27.5z
M682 505h-597q-5 -5 -8.5 -11t-6.5 -11h628q-4 5 -7.5 11t-8.5 11zM618 561h-472q-7 -5 -13 -9.5t-12 -9.5h524q-7 5 -13.5 9.5t-13.5 9.5zM738 272v7h-238q-13 -18 -34 -33h270q1 6 1.5 12.5t0.5 13.5zM32 246h270q-10 7 -18.5 15t-14.5 18h-238v-7v-14q0 -6 1 -12z
M512 305h226v31h-223v-16zM254 320v16h-223v-31h226q-3 7 -3 15zM717 448h-301q28 -6 54 -24h256l-4 12t-5 12zM43 424h255q12 8 26 14.5t29 9.5h-302l-4 -12zM734 392h-233q5 -7 7.5 -13.5t4.5 -14.5h224q0 7 -1 14zM31 364h225q3 13 11 28h-232q-2 -7 -2.5 -14t-1.5 -14z
M436 617h-103q-26 0 -51.5 -4t-49.5 -11h295q-43 12 -91 15z" />
    <glyph glyph-name="FL0032h" unicode="1" horiz-adv-x="359" 
d="M105 8h223v45h-223v-45zM105 68h223v42h-223v-42zM105 127h223v39h-223v-39zM105 186h223v37h-223v-37zM105 246h223v33h-223v-33zM105 305h223v31h-223v-31zM31 483h297v22h-297v-22zM105 364h223v28h-223v-28zM31 542h297v19h-297v-19zM105 424h223v24h-223v-24z
M31 602h297v15h-297v-15z" />
    <glyph glyph-name="FL0031h" unicode="2" 
d="M31 8h673v45h-673v-45zM31 68h673v42h-673v-42zM31 127h673v39h-673v-39zM31 223v-37h673v37h-673zM689 336h-644q-10 -17 -13 -31h630q8 7 15 14.5t12 16.5zM131 392q-17 -2 -33 -9.5t-30 -18.5h633q1 4 1.5 7.5t1.5 8.5v12h-573zM31 483h673v22h-673v-22zM690 561h-659
v-19h668q-2 5 -4.5 9.5t-4.5 9.5zM31 602h617q-21 12 -44 15h-573v-15zM31 246h223v33h-223v-33zM481 424h223v24h-223v-24z" />
    <glyph glyph-name="FL0033h" unicode="3" horiz-adv-x="623" 
d="M576 53h-545v-45h494q32 14 51 45zM592 100v10h-561v-42h552q7 15 9 32zM31 127h561v39h-561v-39zM31 222v-36h561v37h-224v-1h-337zM565 334l-2 2h-532v-31h550q-4 8 -8.5 15.5t-7.5 13.5zM592 387v5h-561v-28h550q8 13 11 23zM31 483h561v22h-561v-22zM579 561h-548
v-19h556q-3 9 -8 19zM368 246h224v33h-224v-33zM492 617h-461v-15h508q-21 12 -47 15zM368 424h224v24h-224v-24z" />
    <glyph glyph-name="FL0034h" unicode="4" horiz-adv-x="736" 
d="M482 309v-4h223v31h-674v-31h439zM275 364h430v28h-355zM31 246h273l93 33h-366v-33zM482 8h223v45h-223v-45zM482 68h223v42h-223v-42zM482 127h223v39h-223v-39zM482 186h223v37h-223v-37zM482 246h223v33h-223v-33zM31 364h223v28h-223v-28zM436 424h269v24h-223v-7z
M31 424h223v24h-223v-24zM31 483h223v22h-223v-22zM482 483h223v22h-223v-22zM31 542h223v19h-223v-19zM482 542h223v19h-223v-19zM254 617h-223v-15h223v15zM705 617h-223v-15h223v15z" />
    <glyph glyph-name="FL0035h" unicode="5" 
d="M689 53h-658v-45h605q34 14 53 45zM704 100v10h-673v-42h665q7 16 8 32zM31 127h673v39h-673v-39zM31 186h673v37h-673v-37zM689 336h-658v-31h671q-2 8 -5 15.5t-8 15.5zM604 392h-573v-28h635q-13 11 -29 18.5t-33 9.5zM31 483h673v22h-673v-22zM31 542h673v19h-673
v-19zM704 617h-673v-15h673v15zM481 246h223v33h-223v-33zM31 424h223v24h-223v-24z" />
    <glyph glyph-name="FL0036h" unicode="6" 
d="M38 68h657q8 15 9 31v11h-673v-11q0 -14 7 -31zM99 8h537q32 14 51 45h-640q18 -31 52 -45zM31 127h673v39h-673v-39zM31 186h673v37h-673v-37zM31 305h673v31h-673v-31zM704 392h-673v-28h673v28zM31 483h673v22h-673v-22zM36 542h668v19h-659q-5 -8 -9 -19zM704 617
h-573q-23 -3 -44 -15h617v15zM31 246h223v33h-223v-33zM481 246h223v33h-223v-33zM31 424h223v24h-223v-24z" />
    <glyph glyph-name="FL0037h" unicode="7" horiz-adv-x="682" 
d="M636 336h-533q-4 -8 -7 -15.5t-5 -15.5h518q8 7 15 14.5t12 16.5zM189 392q-18 -2 -34 -9.5t-29 -18.5h522q1 4 1.5 7.5t1.5 8.5v12h-462zM31 483h620v22h-620v-22zM31 542h620v19h-620v-19zM89 8h224v45h-224v-45zM89 68h224v42h-224v-42zM31 602h620v15h-620v-15z
M89 127h224v39h-224v-39zM89 186h224v37h-224v-37zM89 246h224v33h-224v-33zM428 424h223v24h-223v-24z" />
    <glyph glyph-name="FL0038h" unicode="8" horiz-adv-x="736" 
d="M38 68h658q7 15 9 32v10h-674v-10q0 -15 7 -32zM98 8h540q32 14 51 45h-643q18 -31 52 -45zM31 127h674v39h-674v-39zM254 222v1h-223v-37h674v37h-223v-1h-228zM31 483h674v22h-674v-22zM35 542h665q-3 9 -8 19h-648q-5 -8 -9 -19zM678 334l-2 2h-368v-31h386
q-4 8 -8.5 15.5t-7.5 13.5zM705 387v5h-397v-28h386q8 13 11 23zM131 617q-25 -3 -46 -15h567q-21 12 -47 15h-474zM31 246h223v33h-223v-33zM482 246h223v33h-223v-33zM41 305h213v31h-195l-1 -2q-4 -6 -8 -13.5t-9 -15.5zM41 364h213v28h-223v-5q1 -9 10 -23zM31 424h223
v24h-223v-24zM482 424h223v24h-223v-24z" />
    <glyph glyph-name="FL0039h" unicode="9" 
d="M687 53h-656v-45h604q32 14 52 45zM704 101v9h-673v-42h664q7 15 9 33zM31 127h673v39h-673v-39zM31 222v-36h673v37h-223v-1h-450zM31 305h673v31h-673v-31zM31 392v-28h673v28h-673zM31 483h673v22h-673v-22zM689 561h-644q-5 -8 -9 -19h662q-4 11 -9 19zM604 617h-473
q-12 -1 -23.5 -5t-22.5 -10h565q-11 6 -22.5 10t-23.5 5zM481 246h223v33h-223v-33zM481 424h223v24h-223v-24zM31 424h223v24h-223v-24z" />
    <glyph glyph-name="FL003Ah" unicode=":" horiz-adv-x="287" 
d="M39 68h208q4 10 6.5 20.5t2.5 21.5h-225q0 -21 8 -42zM241 166h-197q-9 -18 -12 -39h223q-3 20 -14 39zM100 8h85q35 14 54 45h-192q18 -31 53 -45zM36 364h214q5 14 6 28h-225q0 -13 5 -28zM244 448h-202q-6 -12 -9 -24h220q-3 12 -9 24zM80 305h124q20 12 33 31h-188
q11 -18 31 -31zM156 223h-27q-43 -6 -71 -37h169q-28 31 -71 37zM178 505h-72q-23 -8 -38 -22h149q-17 14 -39 22z" />
    <glyph glyph-name="FL003Bh" unicode=";" horiz-adv-x="288" 
d="M39 68h217v42h-225q0 -21 8 -42zM100 8h156v45h-209q18 -31 53 -45zM246 166h-202q-9 -18 -12 -39h223q-2 22 -9 39zM37 364h214q5 14 6 28h-225q0 -13 5 -28zM144 -51h112v48h-112v-48zM245 448h-202q-2 -6 -4.5 -12t-4.5 -12h220q-3 12 -9 24zM81 305h125q20 13 32 31
h-188q11 -18 31 -31zM161 223h-32q-43 -6 -71 -37h177q-14 17 -32.5 26t-41.5 11zM256 -89v29h-112v-29h112zM179 505h-72q-23 -8 -38 -22h149q-17 14 -39 22z" />
    <glyph glyph-name="FL003Ch" unicode="&#x3c;" horiz-adv-x="517" 
d="M241 8h239l-31 45h-239zM199 68h239l-29 42h-239zM158 127h239l-27 39h-239zM117 186h239l-26 37h-239zM75 246h239l-23 33h-239zM31 309l3 -4h239l-3 4l19 27h-239zM69 364h239l20 28h-239zM111 424h239l17 24h-239zM153 483h239l15 22h-239zM194 542h239l14 19h-239z
M486 617h-239l-11 -15h239z" />
    <glyph glyph-name="FL003Dh" unicode="=" horiz-adv-x="442" 
d="M31 246h380v33h-380v-33zM31 364h380v28h-380v-28zM31 424h380v24h-380v-24zM411 206v17h-380v-17h380zM31 305h380v13h-380v-13z" />
    <glyph glyph-name="FL003Eh" unicode="&#x3e;" horiz-adv-x="517" 
d="M36 8h239l32 45h-239zM78 68h239l30 42h-239zM120 127h239l27 39h-239zM161 186h239l26 37h-239zM203 246h239l23 33h-239zM247 309l-3 -4h239l3 4l-19 27h-239zM208 364h239l-19 28h-239zM166 424h239l-16 24h-239zM125 483h239l-15 22h-239zM84 542h239l-14 19h-239z
M31 617l10 -15h239l-10 15h-239z" />
    <glyph glyph-name="FL003Fh" unicode="?" horiz-adv-x="683" 
d="M94 305h516q8 7 15 14.5t12 16.5h-528q-5 -8 -8.5 -15.5t-6.5 -15.5zM189 392q-17 -1 -31 -8.5t-27 -19.5h518q1 4 1.5 7.5t1.5 8.5v12h-463zM31 483h621v22h-621v-22zM638 561h-607v-19h616q-2 5 -4.5 9.5t-4.5 9.5zM98 68h207q4 10 6.5 20.5t2.5 21.5h-225q0 -23 9 -42
zM299 166h-196q-10 -17 -13 -39h223q-3 20 -14 39zM552 617h-521v-15h565q-21 12 -44 15zM159 8h84q35 14 54 45h-192q19 -31 54 -45zM429 424h223v24h-223v-24zM214 223h-27q-42 -6 -70 -37h168q-28 31 -71 37z" />
    <glyph glyph-name="FL0042h" unicode="@" horiz-adv-x="920" 
d="M99 -51h690v48h-744q9 -16 23 -28t31 -20zM39 8h750v45h-758v-13q0 -16 8 -32zM31 68h758v42h-758v-42zM789 163h-535v3h-223v-39h758v36zM883 279h-592v-25q0 -6 1 -8h573q12 15 18 33zM502 329h-85v7h-126v-31h598v31h-224v-8h-37v8h-126v-7zM31 542h858v19h-858v-19z
M874 618h-829q-5 -8 -8 -16h845q-3 8 -8 16zM341 204h448q27 1 51 19h-536q8 -8 17.5 -13t19.5 -6zM796 674h-672q-16 -3 -35 -13h741q-19 10 -34 13zM417 377h85v-13h126v28h-337v-28h126v13zM31 186h223v37h-223v-37zM628 425q-1 12 -8 23h-323q-6 -11 -6 -23v-1h337v1z
M31 246h223v33h-223v-33zM31 305h223v31h-223v-31zM665 364h224v28h-224v-28zM31 364h223v28h-223v-28zM665 424h224v24h-224v-24zM31 424h223v24h-223v-24zM665 483h224v22h-224v-22zM31 483h223v22h-223v-22z" />
    <glyph glyph-name="FL0041h" unicode="A" horiz-adv-x="742" 
d="M31 8h406v45h-406v-45zM31 68h406v42h-406v-42zM31 127h406v39h-406v-39zM437 223h-406v-37h406v37zM71 483h640v22h-625q-5 -5 -8 -11t-7 -11zM122 542h589v19h-564q-6 -5 -12.5 -9.5t-12.5 -9.5zM488 8h223v45h-223v-45zM488 68h223v42h-223v-42zM488 127h223v39h-223
v-39zM488 186h223v37h-223v-37zM31 246h223v33h-223v-33zM488 246h223v33h-223v-33zM31 305h223v31h-223v-31zM488 305h223v31h-223v-31zM711 617h-378q-26 0 -51 -4t-49 -11h478v15zM43 424h255q12 8 26 14.5t29 9.5h-301q-6 -12 -9 -24zM31 364h225q3 13 11 28h-232
q-2 -7 -2.5 -14t-1.5 -14zM488 364h223v28h-223v-28zM488 424h223v24h-223v-24z" />
    <glyph glyph-name="FL0044h" unicode="B" horiz-adv-x="742" 
d="M693 53h-662v-45h607q35 14 55 45zM711 100v10h-680v-42h671q7 15 9 32zM31 127h680v39h-680v-39zM254 222v1h-223v-37h680v37h-230v-1h-227zM661 505h-630v-22h645q-4 5 -7.5 11t-7.5 11zM684 319l-1 2q2 3 4 6.5t4 8.5h-386v-31h387q-2 4 -4 7.5t-4 6.5zM710 372
q-1 5 -1 10t-1 10h-403v-28h402q1 2 1.5 4t1.5 4zM603 561h-572v-19h596q-6 5 -12 9.5t-12 9.5zM711 266l-2 6t-3 7h-225v-33h230v20zM31 246h223v33h-223v-33zM31 305h223v31h-223v-31zM409 617h-378v-15h485q-50 15 -107 15zM693 448h-305q15 -3 28.5 -9.5t25.5 -14.5h259
l-4 12zM31 364h223v28h-223v-28zM31 424h223v24h-223v-24z" />
    <glyph glyph-name="FL0043h" unicode="C" horiz-adv-x="624" 
d="M75 127h518v39h-540q10 -23 22 -39zM45 186h548v37h-558q2 -10 4.5 -19t5.5 -18zM130 68h463v42h-506q20 -25 43 -42zM258 8h335v45h-442q23 -16 50.5 -27.5t56.5 -17.5zM31 483h562v22h-562v-22zM31 542h562v19h-562v-19zM593 617h-562v-15h562v15zM32 246h272
q-21 15 -34 33h-239v-7v-14q0 -6 1 -12zM256 320v16h-225v-31h227q-2 10 -2 15zM31 364h225v28h-225v-28zM31 424h225v24h-225v-24z" />
    <glyph glyph-name="d" unicode="D" horiz-adv-x="736" 
d="M31 483h674v22h-674v-22zM700 223h-395v-37h385q3 9 5.5 18t4.5 19zM683 166h-378v-39h356q6 9 11.5 18.5t10.5 20.5zM648 110h-343v-42h301q11 9 22 19.5t20 22.5zM31 542h674v19h-674v-19zM585 53h-280v-45h173q29 6 56 17.5t51 27.5zM31 602h674v15h-674v-15zM31 8
h223v45h-223v-45zM31 68h223v42h-223v-42zM31 127h223v39h-223v-39zM705 272v7h-240q-14 -20 -33 -33h271q1 6 1.5 12.5t0.5 13.5zM31 186h223v37h-223v-37zM31 246h223v33h-223v-33zM477 305h228v31h-225v-16zM31 305h223v31h-223v-31zM480 364h225v28h-225v-28zM31 364
h223v28h-223v-28zM480 424h225v24h-225v-24zM31 424h223v24h-223v-24z" />
    <glyph glyph-name="FL0045h" unicode="E" horiz-adv-x="624" 
d="M75 127h518v39h-540q10 -23 22 -39zM45 186h548v37h-558q2 -10 4.5 -19t5.5 -18zM130 68h463v42h-506q20 -25 43 -42zM258 8h335v45h-442q23 -16 50.5 -27.5t56.5 -17.5zM31 305h561v31h-561v-31zM592 392h-561v-28h561v28zM31 483h562v22h-562v-22zM31 542h562v19h-562
v-19zM593 617h-562v-15h562v15zM32 246h265q-8 7 -14.5 15t-12.5 18h-239v-7v-14q0 -6 1 -12zM31 424h225v24h-225v-24z" />
    <glyph glyph-name="FL0046h" unicode="F" horiz-adv-x="624" 
d="M31 305h561v31h-561v-31zM592 392h-561v-28h561v28zM31 483h562v22h-562v-22zM31 542h562v19h-562v-19zM31 8h223v45h-223v-45zM31 68h223v42h-223v-42zM31 127h223v39h-223v-39zM593 617h-562v-15h562v15zM31 186h223v37h-223v-37zM31 246h223v33h-223v-33zM31 424h223
v24h-223v-24z" />
    <glyph glyph-name="g" unicode="G" horiz-adv-x="743" 
d="M45 186h652q3 9 5.5 18t4.5 19h-672q2 -10 4.5 -19t5.5 -18zM75 127h592q6 9 11.5 18.5t10.5 20.5h-636q5 -11 10.5 -20.5t11.5 -18.5zM130 68h479q25 19 44 42h-565q18 -24 42 -42zM258 8h213q32 6 61 17t55 28h-436q24 -16 51 -27.5t56 -17.5zM31 483h681v22h-681v-22z
M31 542h681v19h-681v-19zM370 305h342v31h-342v-31zM31 602h681v15h-681v-15zM370 364h342v28h-342v-28zM32 246h272q-23 15 -34 33h-239v-7v-14q0 -6 1 -12zM441 246h269q1 6 1.5 12.5t0.5 13.5v7h-238q-14 -20 -33 -33zM255 320v16h-224v-31h227q-3 7 -3 15zM31 364h224
v28h-224v-28zM31 424h224v24h-224v-24z" />
    <glyph glyph-name="H" unicode="H" horiz-adv-x="733" 
d="M479 305h223v31h-671v-31h405l43 12v-12zM31 364h671v28h-421l-27 -8v8h-223v-28zM31 8h223v45h-223v-45zM479 8h223v45h-223v-45zM31 68h223v42h-223v-42zM479 68h223v42h-223v-42zM31 127h223v39h-223v-39zM479 127h223v39h-223v-39zM254 254l89 25h-312v-33h223v8z
M479 186h223v37h-223v-37zM31 186h223v37h-223v-37zM479 246h223v33h-223v-33zM390 424h312v24h-230zM31 424h223v24h-223v-24zM31 483h223v22h-223v-22zM479 483h223v22h-223v-22zM31 542h223v19h-223v-19zM479 542h223v19h-223v-19zM31 602h223v15h-223v-15zM479 602h223
v15h-223v-15z" />
    <glyph glyph-name="I" unicode="I" horiz-adv-x="623" 
d="M31 8h561v45h-561v-45zM31 68h561v42h-561v-42zM31 127h561v39h-561v-39zM592 223h-561v-37h561v37zM31 483h561v22h-561v-22zM31 542h561v19h-561v-19zM31 602h561v15h-561v-15zM198 246h224v33h-224v-33zM198 305h224v31h-224v-31zM198 364h224v28h-224v-28zM198 424
h224v24h-224v-24z" />
    <glyph glyph-name="j" unicode="J" horiz-adv-x="743" 
d="M45 186h652q3 9 5.5 18t4.5 19h-672q2 -10 4.5 -19t5.5 -18zM76 127h591q15 20 23 39h-637q5 -11 10.5 -20.5t12.5 -18.5zM134 68h478q23 17 43 42h-566q19 -24 45 -42zM271 8h213q29 6 56 17.5t51 27.5h-435q51 -33 115 -45zM123 483h589v22h-589v-22zM123 542h589v19
h-589v-19zM123 602h589v15h-589v-15zM439 246h271q1 6 1.5 12.5t0.5 13.5v7h-239q-13 -18 -34 -33zM32 246h270q-10 7 -18.5 15t-14.5 18h-238v-7v-14q0 -6 1 -12zM485 305h227v31h-224v-16zM254 320v16h-223v-31h226q-3 7 -3 15zM488 364h224v28h-224v-28zM488 424h224v24
h-224v-24z" />
    <glyph glyph-name="K" unicode="K" horiz-adv-x="720" 
d="M478 8h223l-16 45h-223zM31 8h223v45h-223v-45zM456 68h224l-15 42h-224zM31 68h223v42h-223v-42zM305 305h291l-11 31h-280v-31zM435 127h224l-14 39h-224zM31 127h223v39h-223v-39zM305 364h291l12 28h-303v-28zM413 186h225l-13 37h-225zM31 186h223v37h-223v-37z
M391 246h226l-12 33h-226zM31 246h223v33h-223v-33zM31 305h223v31h-223v-31zM31 364h223v28h-223v-28zM393 424h229l10 24h-228zM31 424h223v24h-223v-24zM420 483h227l9 22h-226zM31 483h223v22h-223v-22zM447 542h225l8 19h-225zM31 542h223v19h-223v-19zM474 602h223
l7 15h-223zM31 602h223v15h-223v-15z" />
    <glyph glyph-name="l" unicode="L" horiz-adv-x="567" 
d="M76 127h460v39h-483q5 -11 10.5 -20.5t12.5 -18.5zM536 222h-168q-6 0 -9 1h-324q2 -10 4.5 -19t5.5 -18h491v36zM134 68h402v42h-447q19 -24 45 -42zM271 8h265v45h-380q51 -33 115 -45zM268 279h-237v-7v-14q0 -6 1 -12h268q-20 14 -32 33zM254 320v16h-223v-31h226
q-3 7 -3 15zM31 364h223v28h-223v-28zM31 424h223v24h-223v-24zM31 483h223v22h-223v-22zM31 542h223v19h-223v-19zM254 617h-223v-15h223v15z" />
    <glyph glyph-name="m" unicode="M" horiz-adv-x="1074" 
d="M988 505h-903q-5 -5 -8.5 -11t-6.5 -11h933q-3 5 -6.5 11t-8.5 11zM927 561h-781q-7 -5 -13 -9.5t-12 -9.5h831q-6 5 -12 9.5t-13 9.5zM819 8h224v45h-224v-45zM31 8h223v45h-223v-45zM425 8h223v45h-223v-45zM819 68h224v42h-224v-42zM31 68h223v42h-223v-42zM425 68
h223v42h-223v-42zM819 127h224v39h-224v-39zM31 127h223v39h-223v-39zM425 127h223v39h-223v-39zM819 186h224v37h-224v-37zM31 186h223v37h-223v-37zM425 186h223v37h-223v-37zM333 617q-26 0 -51.5 -4t-49.5 -11h609q-24 7 -49.5 11t-51.5 4h-407zM819 246h224v33h-224
v-33zM31 246h223v33h-223v-33zM425 246h223v33h-223v-33zM819 305h224v31h-224v-31zM425 305h223v31h-223v-31zM31 305h223v31h-223v-31zM1022 448h-302q28 -6 54 -24h257l-4 12t-5 12zM353 448h-302l-4 -12l-4 -12h255q12 8 26 14.5t29 9.5zM1039 392h-234q5 -7 7.5 -13.5
t4.5 -14.5h225q-1 7 -1.5 14t-1.5 14zM267 392h-232q-2 -7 -2.5 -14t-1.5 -14h225q3 13 11 28zM425 364h223v28h-223v-28zM425 424h223v24h-223v-24z" />
    <glyph glyph-name="N" unicode="N" horiz-adv-x="742" 
d="M657 505h-626v-22h641q-4 5 -7.5 11t-7.5 11zM596 561h-565v-19h590q-6 5 -12.5 9.5t-12.5 9.5zM31 8h223v45h-223v-45zM488 8h223v45h-223v-45zM31 68h223v42h-223v-42zM488 68h223v42h-223v-42zM31 127h223v39h-223v-39zM488 127h223v39h-223v-39zM31 186h223v37h-223
v-37zM488 186h223v37h-223v-37zM488 246h223v33h-223v-33zM31 246h223v33h-223v-33zM31 305h223v31h-223v-31zM488 305h223v31h-223v-31zM409 617h-378v-15h479q-24 7 -49.5 11t-51.5 4zM443 424h256l-4 12t-5 12h-301q28 -6 54 -24zM486 364h224q0 7 -1 14l-2 14h-233
q5 -7 7.5 -13.5t4.5 -14.5zM31 364h223v28h-223v-28zM31 424h223v24h-223v-24z" />
    <glyph glyph-name="FL0030h" unicode="O" horiz-adv-x="742" 
d="M31 8h680v45h-680v-45zM31 68h680v42h-680v-42zM31 127h680v39h-680v-39zM31 223v-37h680v37h-680zM656 505h-571q-5 -5 -8.5 -11t-6.5 -11h601q-4 5 -7.5 11t-7.5 11zM594 561h-448q-7 -5 -13 -9.5t-12 -9.5h498q-6 5 -12 9.5t-13 9.5zM31 246h223v33h-223v-33zM488 246
h223v33h-223v-33zM31 305h223v31h-223v-31zM488 305h223v31h-223v-31zM43 424h255q12 8 26 14.5t29 9.5h-302l-4 -12zM690 448h-301q28 -6 54 -24h256zM707 392h-233q5 -7 7.5 -13.5t4.5 -14.5h224q0 7 -1 14zM31 364h225q3 13 11 28h-232q-2 -7 -2.5 -14t-1.5 -14zM409 617
h-76q-26 0 -51.5 -4t-49.5 -11h276q-23 7 -48 11t-51 4z" />
    <glyph glyph-name="FL0050h" unicode="P" horiz-adv-x="742" 
d="M657 505h-626v-22h641q-4 5 -7.5 11t-7.5 11zM305 305h406v31h-406v-31zM305 392v-28h405q-1 7 -1.5 14t-1.5 14h-402zM596 561h-565v-19h590q-6 5 -12.5 9.5t-12.5 9.5zM31 8h223v45h-223v-45zM31 68h223v42h-223v-42zM31 127h223v39h-223v-39zM31 186h223v37h-223v-37z
M31 246h223v33h-223v-33zM31 305h223v31h-223v-31zM409 617h-378v-15h479q-24 7 -49.5 11t-51.5 4zM443 424h256l-4 12t-5 12h-302q15 -3 29 -9.5t26 -14.5zM31 364h223v28h-223v-28zM31 424h223v24h-223v-24z" />
    <glyph glyph-name="q" unicode="Q" horiz-adv-x="742" 
d="M305 8h406v45h-406v-45zM305 68h406v42h-406v-42zM305 127h406v39h-406v-39zM305 186h406v37h-406v-37zM70 483h601q-4 5 -7.5 11t-7.5 11h-571q-5 -5 -8.5 -11t-6.5 -11zM31 8h223v45h-223v-45zM31 68h223v42h-223v-42zM305 -110h185v50h-185v-50zM121 542h498
q-6 5 -12 9.5t-13 9.5h-448q-7 -5 -13 -9.5t-12 -9.5zM305 -51h185v48h-185v-48zM31 127h223v39h-223v-39zM31 186h223v37h-223v-37zM31 246h223v33h-223v-33zM488 246h223v33h-223v-33zM31 305h223v31h-223v-31zM488 305h223v31h-223v-31zM43 424h255q12 8 26 14.5t29 9.5
h-302l-4 -12zM690 448h-301q28 -6 54 -24h256zM707 392h-233q5 -7 7.5 -13.5t4.5 -14.5h224q0 7 -1 14zM31 364h225q3 13 11 28h-232q-2 -7 -2.5 -14t-1.5 -14zM232 602h276q-23 7 -48 11t-51 4h-76q-26 0 -51.5 -4t-49.5 -11zM490 -123v7h-185v-7h185z" />
    <glyph glyph-name="FL0052h" unicode="R" horiz-adv-x="742" 
d="M657 505h-626v-22h641q-4 5 -7.5 11t-7.5 11zM305 305h406v31h-406v-31zM305 364h405q-1 7 -1.5 14t-1.5 14h-402v-28zM596 561h-565v-19h590q-6 5 -12.5 9.5t-12.5 9.5zM31 8h223v45h-223v-45zM478 8h223l-16 45h-223zM456 68h223l-15 42h-223zM31 68h223v42h-223v-42z
M435 127h223l-14 39h-223zM31 127h223v39h-223v-39zM413 186h224l-13 37h-224zM31 186h223v37h-223v-37zM391 246h225l-12 33h-225zM31 246h223v33h-223v-33zM31 305h223v31h-223v-31zM409 617h-378v-15h479q-24 7 -49.5 11t-51.5 4zM690 448h-302q15 -3 29 -9.5t26 -14.5
h256l-4 12t-5 12zM31 364h223v28h-223v-28zM31 424h223v24h-223v-24z" />
    <glyph glyph-name="FL0053h" unicode="S" horiz-adv-x="742" 
d="M681 53h-650v-45h601q14 7 26.5 19t22.5 26zM708 110h-677v-42h660q6 11 10 21t7 21zM31 127h680v39h-680v-39zM31 222v-36h680v37h-230v-1h-450zM685 336h-645q5 -8 11 -16t16 -15h637q-3 8 -8 15.5t-11 15.5zM533 392h-499q-1 -5 -1.5 -11t-0.5 -11v-6h620
q-21 13 -51 20.5t-68 7.5zM67 483h644v22h-629q-4 -5 -7.5 -11t-7.5 -11zM117 542h594v19h-569q-14 -9 -25 -19zM711 268q0 7 -1 11h-229v-33h230v22zM711 617h-378q-28 0 -54.5 -4t-50.5 -11h483v15zM354 448h-304l-9 -24h259q26 18 54 24z" />
    <glyph glyph-name="t" unicode="T" horiz-adv-x="717" 
d="M143 68h482v42h-489v-9q0 -16 7 -33zM204 8h421v45h-474q20 -31 53 -45zM136 127h489v39h-489v-39zM625 222h-266v1h-223v-37h489v36zM31 483h655v22h-655v-22zM31 542h655v19h-655v-19zM686 617h-655v-15h655v15zM136 246h223v33h-223v-33zM136 305h223v31h-223v-31z
M136 364h223v28h-223v-28zM136 424h223v24h-223v-24z" />
    <glyph glyph-name="u" unicode="U" horiz-adv-x="742" 
d="M45 186h651q3 9 5.5 18t4.5 19h-671q2 -10 4.5 -19t5.5 -18zM76 127h591q6 9 11.5 18.5t10.5 20.5h-636q5 -11 10.5 -20.5t12.5 -18.5zM134 68h478q11 9 22 19.5t20 22.5h-565q19 -24 45 -42zM271 8h213q29 6 56 17.5t51 27.5h-435q51 -33 115 -45zM439 246h270
q1 6 1.5 12.5t0.5 13.5v7h-238q-13 -18 -34 -33zM32 246h270q-10 7 -18.5 15t-14.5 18h-238v-7v-14q0 -6 1 -12zM485 305h226v31h-223v-16zM254 320v16h-223v-31h226q-3 7 -3 15zM488 364h223v28h-223v-28zM31 364h223v28h-223v-28zM31 424h223v24h-223v-24zM488 424h223v24
h-223v-24zM31 483h223v22h-223v-22zM488 483h223v22h-223v-22zM488 542h223v19h-223v-19zM31 542h223v19h-223v-19zM488 602h223v15h-223v-15zM31 602h223v15h-223v-15z" />
    <glyph glyph-name="FL0056h" unicode="V" horiz-adv-x="713" 
d="M354 223h-231l11 -37h440l11 37h-228l-1 -6zM150 127h408l11 39h-430zM158 99q5 -17 13 -31h361q5 8 9.5 15.5t8.5 15.5l3 11h-398zM233 8h239q15 7 27 19t23 26h-342q22 -31 53 -45zM117 246h231l-9 33h-231zM364 246h227l10 33h-228zM101 305h231l-9 31h-231zM380 305
h228l9 31h-229zM84 364h232l-8 28h-231zM396 364h229l8 28h-230zM68 424h232l-7 24h-232zM412 424h230l7 24h-230zM52 483h232l-6 22h-232zM428 483h231l6 22h-231zM36 542h232l-5 19h-232zM445 542h231l5 19h-231zM16 617l4 -15h232l-4 15h-232zM697 617h-231l-4 -15h231z
" />
    <glyph glyph-name="w" unicode="W" horiz-adv-x="1074" 
d="M75 127h923q6 9 11.5 18.5t10.5 20.5h-967q10 -23 22 -39zM45 186h983q3 9 5.5 18t4.5 19h-1003q2 -10 4.5 -19t5.5 -18zM130 68h812q26 20 43 42h-897q9 -12 20 -22.5t22 -19.5zM258 8h556q29 6 56 17.5t51 27.5h-770q24 -16 51 -27.5t56 -17.5zM770 246h271
q1 6 1.5 12.5t0.5 13.5v7h-239q-13 -18 -34 -33zM32 246h270q-10 7 -18.5 15t-14.5 18h-238v-7v-14q0 -6 1 -12zM425 246h223v33h-223v-33zM816 305h227v31h-224v-16zM254 320v16h-223v-31h226q-3 7 -3 15zM425 305h223v31h-223v-31zM819 364h224v28h-224v-28zM31 364h223
v28h-223v-28zM425 364h223v28h-223v-28zM819 424h224v24h-224v-24zM31 424h223v24h-223v-24zM425 424h223v24h-223v-24zM819 483h224v22h-224v-22zM31 483h223v22h-223v-22zM425 483h223v22h-223v-22zM819 542h224v19h-224v-19zM425 542h223v19h-223v-19zM31 542h223v19
h-223v-19zM819 602h224v15h-224v-15zM425 602h223v15h-223v-15zM31 602h223v15h-223v-15z" />
    <glyph glyph-name="FL0058h" unicode="X" horiz-adv-x="703" 
d="M352 138l7 -11h239l-27 39h-439l-27 -39h239zM146 186h411l-26 37h-359zM21 8h239l32 45h-239zM442 8h239l-31 45h-239zM63 68h239l30 42h-239zM400 68h239l-29 42h-239zM188 246h327l-23 33h-281zM151 424h400l17 24h-433zM193 364h316l20 28h-355zM232 309l-3 -4h245
l-3 4l19 27h-277zM110 483h240l-16 22h-239zM354 483h239l15 22h-239zM69 542h239l-14 19h-239zM395 542h239l14 19h-239zM687 617h-239l-11 -15h239zM16 617l10 -15h239l-10 15h-239z" />
    <glyph glyph-name="y" unicode="Y" horiz-adv-x="678" 
d="M624 166h-523v-39h501q6 9 11.5 18.5t10.5 20.5zM642 223h-541v-37h531q3 9 5.5 18t4.5 19zM589 110h-488v-42h445q26 20 43 42zM115 305h532v31h-572q18 -19 40 -31zM525 53h-424v-45h318q29 6 55.5 17.5t50.5 27.5zM55 364h592v28h-604q5 -17 12 -28zM647 272v7h-239
q-14 -20 -33 -33h270q1 6 1.5 12.5t0.5 13.5zM35 424h241q-8 10 -12 24h-233q2 -14 4 -24zM422 424h225v24h-225v-24zM256 490v15h-225v-22h226q-1 2 -1 7zM422 483h225v22h-225v-22zM31 542h225v19h-225v-19zM422 542h225v19h-225v-19zM31 602h225v15h-225v-15zM422 602
h225v15h-225v-15z" />
    <glyph glyph-name="z" unicode="Z" horiz-adv-x="623" 
d="M31 8h561v45h-561v-45zM31 68h561v42h-561v-42zM31 127h561v39h-561v-39zM31 186h561v37h-561v-37zM31 483h561v22h-561v-22zM31 542h561v19h-561v-19zM592 617h-561v-15h561v15zM64 246h229l49 33h-230zM150 305h230l45 31h-230zM235 364h231l41 28h-231zM322 424h232
l35 24h-232z" />
    <glyph glyph-name="FL005Bh" unicode="[" horiz-adv-x="462" 
d="M31 -51h400v48h-400v-48zM31 8h400v45h-400v-45zM31 68h400v42h-400v-42zM254 165v1h-223v-39h400v38h-177zM31 186h223v37h-223v-37zM31 542h400v19h-400v-19zM31 246h223v33h-223v-33zM31 305h223v31h-223v-31zM31 602h400v16h-400v-16zM31 364h223v28h-223v-28z
M31 424h223v24h-223v-24zM31 661h400v13h-400v-13zM31 483h223v22h-223v-22z" />
    <glyph glyph-name="FL005Ch" unicode="\" horiz-adv-x="440" 
d="M183 8h224l-12 45h-224zM168 68h224l-11 42h-224zM153 127h224l-10 39h-224zM138 186h224l-9 37h-224zM123 246h224l-8 33h-224zM108 305h224l-7 31h-224zM94 364h224l-7 28h-224zM79 424h224l-6 24h-224zM64 483h224l-5 22h-225zM49 542h224l-5 19h-224zM31 617l3 -15
h224l-3 15h-224z" />
    <glyph glyph-name="FL005Dh" unicode="]" horiz-adv-x="463" 
d="M31 -51h401v48h-401v-48zM31 8h401v45h-401v-45zM31 68h401v42h-401v-42zM31 165v-38h401v39h-224v-1h-177zM208 186h224v37h-224v-37zM31 542h401v19h-401v-19zM208 246h224v33h-224v-33zM208 305h224v31h-224v-31zM31 602h401v16h-401v-16zM208 364h224v28h-224v-28z
M208 424h224v24h-224v-24zM31 661h401v13h-401v-13zM208 483h224v22h-224v-22z" />
    <glyph glyph-name="FL005Eh" unicode="^" horiz-adv-x="682" 
d="M18 8h225l10 45h-223zM439 8h225l-12 45h-223zM341 447l5 -23h211l-6 24h-416l-7 -24h208zM34 68h222l10 42h-221zM426 68h222l-11 42h-221zM144 483h398l-6 22h-387zM49 127h221l8 39h-218zM412 127h220l-10 39h-218zM399 186h218l-9 37h-217zM65 186h218l8 37h-216z
M386 246h216l-9 33h-214zM81 246h215l7 33h-213zM515 561h-343q-6 -9 -11 -19h365q-5 10 -11 19zM373 305h214l-8 31h-213zM97 305h212l7 31h-211zM359 364h213l-7 28h-212zM112 364h210l6 28h-208zM431 617h-174q-23 -3 -42 -15h258q-19 12 -42 15z" />
    <glyph glyph-name="FL005Fh" unicode="_" horiz-adv-x="597" 
d="M31 8h535v45h-535v-45zM31 68h535v42h-535v-42zM31 127h535v39h-535v-39zM566 223h-535v-37h535v37z" />
    <glyph glyph-name="FL0060h" unicode="`" horiz-adv-x="261" 
d="M51 542h179v14q-10 0 -22 5h-166q2 -5 4.5 -9.5t4.5 -9.5zM114 483h116v22h-147q13 -13 31 -22zM31 602h133q-2 6 -2 11v5h-131v-1v-15z" />
    <glyph glyph-name="a" unicode="a" 
d="M31 483h673v22h-673v-22zM36 542h663q-4 12 -8 19h-647q-5 -10 -8 -19zM306 305h398v31h-398v-31zM306 364h398v28h-398v-28zM31 8h223v45h-223v-45zM481 8h223v45h-223v-45zM31 68h223v42h-223v-42zM481 68h223v42h-223v-42zM31 127h223v39h-223v-39zM481 127h223v39
h-223v-39zM31 186h223v37h-223v-37zM481 186h223v37h-223v-37zM86 602h566q-23 12 -48 15h-474q-25 -3 -44 -15zM31 246h223v33h-223v-33zM481 246h223v33h-223v-33zM31 305h223v31h-223v-31zM31 364h223v28h-223v-28zM31 424h223v24h-223v-24zM481 424h223v24h-223v-24z
" />
    <glyph glyph-name="b" unicode="b" 
d="M689 53h-658v-45h605q34 14 53 45zM704 100v10h-673v-42h665q7 16 8 32zM31 127h673v39h-673v-39zM254 222v1h-223v-37h673v37h-223v-1h-227zM31 483h673v22h-673v-22zM691 561h-660v-19h668q-4 12 -8 19zM675 336h-370v-31h388q-4 8 -8.5 15.5t-7.5 13.5zM704 387v5
h-399v-28h388q8 13 11 23zM31 602h621q-23 12 -48 15h-573v-15zM31 246h223v33h-223v-33zM481 246h223v33h-223v-33zM31 305h223v31h-223v-31zM31 364h223v28h-223v-28zM31 424h223v24h-223v-24zM481 424h223v24h-223v-24z" />
    <glyph glyph-name="c" unicode="c" horiz-adv-x="623" 
d="M99 8h493v45h-545q18 -31 52 -45zM38 68h554v42h-561v-11q0 -14 7 -31zM31 127h561v39h-561v-39zM31 223v-37h561v37h-561zM31 483h561v22h-561v-22zM36 542h556v19h-547q-5 -8 -9 -19zM31 246h223v33h-223v-33zM87 602h505v15h-461q-23 -3 -44 -15zM31 305h223v31h-223
v-31zM31 364h223v28h-223v-28zM31 424h223v24h-223v-24z" />
    <glyph glyph-name="FL0064h" unicode="d" 
d="M704 99v11h-399v-42h390q8 15 9 31zM687 53h-382v-45h331q32 14 51 45zM305 127h399v39h-399v-39zM31 483h673v22h-673v-22zM305 186h399v37h-399v-37zM691 561h-660v-19h668q-4 12 -8 19zM31 8h223v45h-223v-45zM31 68h223v42h-223v-42zM604 617h-573v-15h621
q-23 12 -48 15zM31 127h223v39h-223v-39zM31 186h223v37h-223v-37zM31 246h223v33h-223v-33zM481 246h223v33h-223v-33zM31 305h223v31h-223v-31zM481 305h223v31h-223v-31zM31 364h223v28h-223v-28zM481 364h223v28h-223v-28zM31 424h223v24h-223v-24zM481 424h223v24h-223
v-24z" />
    <glyph glyph-name="e" unicode="e" horiz-adv-x="623" 
d="M99 8h493v45h-545q18 -31 52 -45zM38 68h554v42h-561v-11q0 -14 7 -31zM31 127h561v39h-561v-39zM592 223h-561v-37h561v37zM31 305h561v31h-561v-31zM592 392h-561v-28h561v28zM31 483h561v22h-561v-22zM36 542h556v19h-547q-5 -8 -9 -19zM31 246h223v33h-223v-33z
M87 602h505v15h-461q-23 -3 -44 -15zM31 424h223v24h-223v-24z" />
    <glyph glyph-name="f" unicode="f" horiz-adv-x="623" 
d="M31 305h561v31h-561v-31zM31 392v-28h561v28h-561zM31 483h561v22h-561v-22zM36 542h556v19h-547q-5 -8 -9 -19zM31 8h223v45h-223v-45zM31 68h223v42h-223v-42zM31 127h223v39h-223v-39zM31 186h223v37h-223v-37zM31 246h223v33h-223v-33zM87 602h505v15h-461
q-23 -3 -44 -15zM31 424h223v24h-223v-24z" />
    <glyph glyph-name="FL0067h" unicode="g" 
d="M38 68h657q8 15 9 31v11h-673v-11q0 -14 7 -31zM99 8h537q32 14 51 45h-640q18 -31 52 -45zM31 127h673v39h-673v-39zM31 186h673v37h-673v-37zM31 483h673v22h-673v-22zM36 542h668v19h-659q-5 -8 -9 -19zM371 305h333v31h-333v-31zM704 392h-333v-28h333v28zM704 617
h-573q-23 -3 -44 -15h617v15zM31 246h223v33h-223v-33zM481 246h223v33h-223v-33zM31 305h223v31h-223v-31zM31 364h223v28h-223v-28zM31 424h223v24h-223v-24z" />
    <glyph glyph-name="h" unicode="h" horiz-adv-x="731" 
d="M31 305h669v31h-669v-31zM31 364h669v28h-669v-28zM476 8h224v45h-224v-45zM31 8h223v45h-223v-45zM476 68h224v42h-224v-42zM31 68h223v42h-223v-42zM476 127h224v39h-224v-39zM31 127h223v39h-223v-39zM476 186h224v37h-224v-37zM31 186h223v37h-223v-37zM476 246h224
v33h-224v-33zM31 246h223v33h-223v-33zM476 424h224v24h-224v-24zM31 424h223v24h-223v-24zM476 483h224v22h-224v-22zM31 483h223v22h-223v-22zM476 542h224v19h-224v-19zM31 542h223v19h-223v-19zM476 602h224v15h-224v-15zM31 602h223v15h-223v-15z" />
    <glyph glyph-name="i" unicode="i" horiz-adv-x="286" 
d="M31 8h224v45h-224v-45zM31 68h224v42h-224v-42zM31 127h224v39h-224v-39zM31 186h224v37h-224v-37zM31 246h224v33h-224v-33zM31 305h224v31h-224v-31zM31 364h224v28h-224v-28zM31 424h224v24h-224v-24zM31 483h224v22h-224v-22zM31 542h224v19h-224v-19zM31 602h224v15
h-224v-15z" />
    <glyph glyph-name="FL006Bh" unicode="j" horiz-adv-x="567" 
d="M513 166h-482v-39h460q6 9 11.5 18.5t10.5 20.5zM31 186h490q3 9 5.5 18t4.5 19h-500v-37zM477 110h-446v-42h402q25 19 44 42zM411 53h-380v-45h264q32 6 61 17t55 28zM270 246h264q1 6 1.5 12.5t0.5 13.5v7h-236q-5 -10 -13 -18t-17 -15zM310 305h226v31h-223v-16z
M313 364h223v28h-223v-28zM313 424h223v24h-223v-24zM313 483h223v22h-223v-22zM313 542h223v19h-223v-19zM313 602h223v15h-223v-15z" />
    <glyph glyph-name="k" unicode="k" horiz-adv-x="741" 
d="M472 8h247l-32 45h-244zM433 68h244l-30 42h-241zM31 8h223v45h-223v-45zM31 68h223v42h-223v-42zM395 127h240l-27 39h-238zM357 186h237l-26 37h-235zM31 127h223v39h-223v-39zM31 186h223v37h-223v-37zM318 246h234l-23 33h-232zM31 246h223v33h-223v-33zM280 305h230
l-18 26l3 5h-229l-3 -5zM31 305h223v31h-223v-31zM286 364h227l18 28h-225zM31 364h223v28h-223v-28zM31 424h223v24h-223v-24zM329 424h223l16 24h-222zM31 483h223v22h-223v-22zM370 483h221l14 22h-219zM31 542h223v19h-223v-19zM412 542h217l13 19h-217zM31 602h223v15
h-223v-15zM454 602h214l10 15h-213z" />
    <glyph glyph-name="FL006Ch" unicode="l" horiz-adv-x="568" 
d="M39 68h498v42h-506v-11q0 -15 8 -31zM99 8h438v45h-490q20 -31 52 -45zM31 127h506v39h-506v-39zM537 222h-283v1h-223v-37h506v36zM31 246h223v33h-223v-33zM31 305h223v31h-223v-31zM31 364h223v28h-223v-28zM31 424h223v24h-223v-24zM31 483h223v22h-223v-22zM31 542
h223v19h-223v-19zM254 617h-223v-15h223v15z" />
    <glyph glyph-name="FL006Dh" unicode="m" horiz-adv-x="1072" 
d="M31 483h1010v22h-1010v-22zM36 542h999q-4 11 -9 19h-982q-5 -10 -8 -19zM86 602h901q-11 6 -22.5 10t-23.5 5h-811q-23 -3 -44 -15zM31 8h223v45h-223v-45zM818 8h223v45h-223v-45zM424 8h223v45h-223v-45zM31 68h223v42h-223v-42zM818 68h223v42h-223v-42zM424 68h223
v42h-223v-42zM818 127h223v39h-223v-39zM31 127h223v39h-223v-39zM424 127h223v39h-223v-39zM818 186h223v37h-223v-37zM31 186h223v37h-223v-37zM424 186h223v37h-223v-37zM818 246h223v33h-223v-33zM31 246h223v33h-223v-33zM424 246h223v33h-223v-33zM818 305h223v31
h-223v-31zM31 305h223v31h-223v-31zM424 305h223v31h-223v-31zM31 364h223v28h-223v-28zM818 364h223v28h-223v-28zM424 364h223v28h-223v-28zM818 424h223v24h-223v-24zM31 424h223v24h-223v-24zM424 424h223v24h-223v-24z" />
    <glyph glyph-name="n" unicode="n" horiz-adv-x="736" 
d="M254 437l37 -13h414v24h-674v-24h223v13zM31 483h674v22h-674v-22zM31 8h223v45h-223v-45zM482 8h223v45h-223v-45zM31 68h223v42h-223v-42zM482 68h223v42h-223v-42zM31 127h223v39h-223v-39zM482 127h223v39h-223v-39zM31 186h223v37h-223v-37zM482 186h223v37h-223
v-37zM462 364h243v28h-323zM31 542h431l-53 19h-378v-19zM31 246h223v33h-223v-33zM482 246h223v33h-223v-33zM31 305h223v31h-223v-31zM482 305h223v31h-223v-31zM31 364h223v28h-223v-28zM482 542h223v19h-223v-19zM31 602h264l-41 15h-223v-15zM482 602h223v15h-223v-15z
" />
    <glyph glyph-name="o" unicode="o" 
d="M704 99v11h-673v-11q0 -15 8 -31h656q8 15 9 31zM687 53h-640q20 -31 52 -45h537q32 14 51 45zM31 127h673v39h-673v-39zM481 222h-227v1h-223v-37h673v37h-223v-1zM31 483h673v22h-673v-22zM691 561h-647q-5 -10 -8 -19h663q-4 12 -8 19zM604 617h-474q-25 -3 -44 -15
h566q-23 12 -48 15zM31 246h223v33h-223v-33zM481 246h223v33h-223v-33zM481 305h223v31h-223v-31zM31 305h223v31h-223v-31zM31 364h223v28h-223v-28zM481 364h223v28h-223v-28zM31 424h223v24h-223v-24zM481 424h223v24h-223v-24z" />
    <glyph glyph-name="p" unicode="p" 
d="M31 483h673v22h-673v-22zM691 561h-660v-19h668q-4 12 -8 19zM689 336h-384v-31h357q8 7 15 14.5t12 16.5zM305 364h396q1 4 1.5 7.5t1.5 8.5v12h-399v-28zM31 8h223v45h-223v-45zM31 68h223v42h-223v-42zM31 602h621q-23 12 -48 15h-573v-15zM31 127h223v39h-223v-39z
M31 186h223v37h-223v-37zM31 246h223v33h-223v-33zM31 305h223v31h-223v-31zM31 364h223v28h-223v-28zM481 424h223v24h-223v-24zM31 424h223v24h-223v-24z" />
    <glyph glyph-name="FL0071h" unicode="q" 
d="M704 99v11h-399v-42h390q8 15 9 31zM687 53h-382v-45h331q32 14 51 45zM305 127h399v39h-399v-39zM31 483h673v22h-673v-22zM305 223v-37h399v37h-399zM691 561h-647q-5 -10 -8 -19h663q-4 12 -8 19zM39 68h215v42h-223v-11q0 -15 8 -31zM305 -110h185v50h-185v-50z
M305 -51h185v48h-185v-48zM31 127h223v39h-223v-39zM99 8h155v45h-207q20 -31 52 -45zM31 186h223v37h-223v-37zM604 617h-474q-25 -3 -44 -15h566q-23 12 -48 15zM481 246h223v33h-223v-33zM31 246h223v33h-223v-33zM31 305h223v31h-223v-31zM481 305h223v31h-223v-31z
M31 364h223v28h-223v-28zM481 364h223v28h-223v-28zM31 424h223v24h-223v-24zM481 424h223v24h-223v-24zM490 -123v7h-185v-7h185z" />
    <glyph glyph-name="r" unicode="r" 
d="M31 483h673v22h-673v-22zM691 561h-660v-19h668q-4 12 -8 19zM689 336h-384v-31h357q8 7 15 14.5t12 16.5zM305 364h396q1 4 1.5 7.5t1.5 8.5v12h-399v-28zM31 8h223v45h-223v-45zM478 8h223l-16 45h-223zM456 68h223l-15 42h-223zM31 68h223v42h-223v-42zM31 602h621
q-23 12 -48 15h-573v-15zM435 127h223l-14 39h-223zM31 127h223v39h-223v-39zM413 186h224l-13 37h-224zM31 186h223v37h-223v-37zM391 246h225l-12 33h-225zM31 246h223v33h-223v-33zM31 305h223v31h-223v-31zM31 364h223v28h-223v-28zM31 424h223v24h-223v-24zM481 424
h223v24h-223v-24z" />
    <glyph glyph-name="s" unicode="s" 
d="M689 53h-658v-45h605q34 14 53 45zM704 100v10h-673v-42h665q7 16 8 32zM31 127h673v39h-673v-39zM31 223v-37h673v37h-673zM73 305h629q-2 8 -5 15.5t-8 15.5h-644q5 -9 12.5 -16.5t15.5 -14.5zM604 392h-573v-12q0 -5 0.5 -8.5t1.5 -7.5h633q-13 11 -29 18.5t-33 9.5z
M31 483h673v22h-673v-22zM36 542h668v19h-659q-5 -8 -9 -19zM704 617h-573q-23 -3 -44 -15h617v15zM481 246h223v33h-223v-33zM31 424h223v24h-223v-24z" />
    <glyph glyph-name="T" unicode="t" horiz-adv-x="707" 
d="M31 483h645v22h-645v-22zM31 542h645v19h-645v-19zM242 8h224v45h-224v-45zM676 617h-645v-15h645v15zM242 68h224v42h-224v-42zM242 127h224v39h-224v-39zM242 186h224v37h-224v-37zM242 246h224v33h-224v-33zM242 305h224v31h-224v-31zM242 364h224v28h-224v-28z
M242 424h224v24h-224v-24z" />
    <glyph glyph-name="FL0075h" unicode="u" 
d="M39 68h656q8 15 9 31v11h-673v-11q0 -15 8 -31zM99 8h537q32 14 51 45h-640q20 -31 52 -45zM31 127h673v39h-673v-39zM481 222h-227v1h-223v-37h673v37h-223v-1zM31 246h223v33h-223v-33zM481 246h223v33h-223v-33zM31 305h223v31h-223v-31zM481 305h223v31h-223v-31z
M31 364h223v28h-223v-28zM481 364h223v28h-223v-28zM31 424h223v24h-223v-24zM481 424h223v24h-223v-24zM31 483h223v22h-223v-22zM481 483h223v22h-223v-22zM31 542h223v19h-223v-19zM481 542h223v19h-223v-19zM704 617h-223v-15h223v15zM254 617h-223v-15h223v15z" />
    <glyph glyph-name="v" unicode="v" horiz-adv-x="712" 
d="M355 223h-220l9 -37h419l10 37h-217v-2zM159 127h388l11 39h-409zM167 99q3 -14 11 -31h348q9 16 14 31l3 11h-379zM238 8h228q15 7 27.5 19t22.5 26h-329q10 -14 23 -26t28 -19zM129 246h220l-8 33h-221zM362 246h218l9 33h-218zM113 305h221l-8 31h-221zM377 305h219
l8 31h-219zM98 364h221l-7 28h-222zM392 364h220l7 28h-220zM82 424h221l-6 24h-222zM408 424h220l6 24h-220zM66 483h222l-5 22h-223zM423 483h221l6 22h-222zM51 542h222l-5 19h-222zM438 542h222l5 19h-222zM681 617h-223l-4 -15h223zM31 617l4 -15h223l-4 15h-223z" />
    <glyph glyph-name="FL0077h" unicode="w" horiz-adv-x="1072" 
d="M39 68h993q8 15 9 31v11h-1010v-11q0 -15 8 -31zM99 8h874q32 14 51 45h-977q20 -31 52 -45zM31 127h1010v39h-1010v-39zM818 222h-171v1h-223v-1h-170v1h-223v-37h1010v37h-223v-1zM31 246h223v33h-223v-33zM424 246h223v33h-223v-33zM818 246h223v33h-223v-33zM818 305
h223v31h-223v-31zM31 305h223v31h-223v-31zM424 305h223v31h-223v-31zM818 364h223v28h-223v-28zM31 364h223v28h-223v-28zM424 364h223v28h-223v-28zM818 424h223v24h-223v-24zM31 424h223v24h-223v-24zM424 424h223v24h-223v-24zM818 483h223v22h-223v-22zM31 483h223v22
h-223v-22zM424 483h223v22h-223v-22zM818 542h223v19h-223v-19zM31 542h223v19h-223v-19zM424 542h223v19h-223v-19zM647 617h-223v-15h223v15zM1041 617h-223v-15h223v15zM254 617h-223v-15h223v15z" />
    <glyph glyph-name="x" unicode="x" horiz-adv-x="734" 
d="M366 156l18 -29h245l-28 39h-469l-27 -39h243zM146 186h441l-26 37h-390zM459 8h253l-31 45h-251zM21 8h254l27 45h-249zM187 246h358l-23 33h-312zM421 68h249l-29 42h-247zM63 68h248l26 42h-244zM357 505h-219l14 -22h429l14 22h-221l-8 -12zM190 424h352l16 24h-383z
M229 364h274l18 28h-310zM228 305h276l-20 29l1 2h-238l2 -2zM401 542h218l13 19h-218zM114 542h218l-13 19h-218zM65 617l10 -15h215l-10 15h-215zM443 602h215l10 15h-214z" />
    <glyph glyph-name="FL0079h" unicode="y" 
d="M689 53h-587v-45h534q34 14 53 45zM704 100v10h-602v-42h594q7 16 8 32zM102 127h602v39h-602v-39zM102 186h602v37h-602v-37zM73 305h631v31h-659q5 -9 12.5 -16.5t15.5 -14.5zM31 392v-12q0 -5 0.5 -8.5t1.5 -7.5h671v28h-673zM481 246h223v33h-223v-33zM31 424h223v24
h-223v-24zM481 424h223v24h-223v-24zM31 483h223v22h-223v-22zM481 483h223v22h-223v-22zM31 542h223v19h-223v-19zM481 542h223v19h-223v-19zM704 617h-223v-15h223v15zM254 617h-223v-15h223v15z" />
    <glyph glyph-name="FL005Ah" unicode="z" 
d="M31 8h673v45h-673v-45zM31 68h673v42h-673v-42zM31 127h673v39h-673v-39zM704 223h-673v-37h673v37zM689 336h-644q-10 -17 -13 -31h630q8 7 15 14.5t12 16.5zM131 392q-17 -2 -33 -9.5t-30 -18.5h633q1 4 1.5 7.5t1.5 8.5v12h-573zM31 483h673v22h-673v-22zM31 542h673
v19h-673v-19zM31 602h673v15h-673v-15zM31 246h223v33h-223v-33zM481 424h223v24h-223v-24z" />
    <glyph glyph-name="FL007Bh" unicode="{" horiz-adv-x="589" 
d="M166 8h392v45h-400v-13q0 -16 8 -32zM225 -51h333v48h-387q9 -16 23 -28t31 -20zM158 68h400v42h-400v-42zM558 165h-177v1h-223v-39h400v38zM31 305h350v31h-350v-31zM31 392v-28h350v28h-350zM158 186h223v37h-223v-37zM158 542h400v19h-400v-19zM158 246h223v33h-223
v-33zM164 602h394v16h-386q-5 -8 -8 -16zM158 424h223v24h-223v-24zM158 483h223v22h-223v-22zM216 661h342v13h-307q-16 -3 -35 -13z" />
    <glyph glyph-name="FL007Ch" unicode="|" horiz-adv-x="285" 
d="M31 -51h223v48h-223v-48zM31 8h223v45h-223v-45zM31 68h223v42h-223v-42zM31 127h223v39h-223v-39zM31 186h223v37h-223v-37zM31 246h223v33h-223v-33zM31 305h223v31h-223v-31zM31 364h223v28h-223v-28zM254 -86v26h-223v-26h223zM31 424h223v24h-223v-24zM31 483h223
v22h-223v-22zM31 542h223v19h-223v-19zM31 602h223v16h-223v-16zM31 661h223v13h-223v-13z" />
    <glyph glyph-name="FL007Dh" unicode="}" horiz-adv-x="589" 
d="M431 40v13h-400v-45h391q7 15 9 32zM417 -3h-386v-48h333q35 16 53 48zM31 68h400v42h-400v-42zM31 127h400v39h-223v-1h-177v-38zM208 305h350v31h-350v-31zM208 392v-28h350v28h-350zM208 186h223v37h-223v-37zM31 542h400v19h-400v-19zM208 246h223v33h-223v-33z
M416 618h-385v-16h393q-3 8 -8 16zM208 424h223v24h-223v-24zM208 483h223v22h-223v-22zM339 674h-308v-13h342q-19 10 -34 13z" />
    <glyph glyph-name="FL007Eh" unicode="~" horiz-adv-x="561" 
d="M515 336h-472q-6 -15 -9 -31h123q16 21 42 24q14 -2 24.5 -8.5t19.5 -15.5h255q5 7 9 15zM287 392h-204q-14 -13 -25 -28h257q-8 6 -14 13t-14 15zM386 247q49 0 87 32h-205q13 -13 29 -22.5t39 -9.5h50zM31 270v-23h115v27v5h-115v-9zM529 392h-116q-5 -18 -15 -28h127
q2 7 3 13.5t1 14.5zM530 428h-116v-4h116v4zM220 427h-45q-16 0 -29 -3h92q-4 1 -8.5 1.5t-9.5 1.5z" />
    <glyph glyph-name="FL007Fh" horiz-adv-x="238" 
 />
    <glyph glyph-name="FL0040h" unicode="&#x20ac;" horiz-adv-x="720" 
d="M195 8h494v45h-545q19 -31 51 -45zM136 68h553v42h-561v-11q1 -14 8 -31zM128 206v-20h561v37h-658v-17h97zM128 127h561v39h-561v-39zM31 246h424v33h-424v-33zM128 483h561v22h-561v-22zM31 364h424v28h-424v-28zM133 542h556v19h-547q-5 -8 -9 -19zM31 424h424v24
h-424v-24zM31 318v-13h424v13h-104v18h-223v-18h-97zM689 617h-461q-23 -3 -44 -15h505v15z" />
    <glyph glyph-name="FL201Ah" unicode="&#x201a;" horiz-adv-x="288" 
d="M39 68h218v42h-226q0 -21 8 -42zM100 8h157v45h-210q18 -31 53 -45zM247 166h-203q-9 -18 -12 -39h224q-2 22 -9 39zM144 -51h113v48h-113v-48zM161 223h-32q-43 -6 -71 -37h178q-14 17 -33 26t-42 11zM257 -89v29h-113v-29h113z" />
    <glyph glyph-name="F" unicode="&#x192;" horiz-adv-x="623" 
d="M31 305h561v31h-561v-31zM31 364h561v28h-561v-28zM31 483h561v22h-561v-22zM31 542h561v19h-561v-19zM31 8h223v45h-223v-45zM31 68h223v42h-223v-42zM31 127h223v39h-223v-39zM31 602h561v15h-561v-15zM31 186h223v37h-223v-37z" />
    <glyph glyph-name="FL201Eh" unicode="&#x201e;" horiz-adv-x="554" 
d="M39 68h218v42h-226q0 -21 8 -42zM306 68h217v42h-226q0 -23 9 -42zM100 8h157v45h-210q18 -31 53 -45zM367 8h156v45h-210q19 -31 54 -45zM247 166h-203q-9 -18 -12 -39h224q-2 22 -9 39zM513 166h-202q-10 -17 -13 -39h224q-2 22 -9 39zM144 -51h113v48h-113v-48z
M411 -51h112v48h-112v-48zM161 223h-32q-43 -6 -71 -37h178q-14 17 -33 26t-42 11zM427 223h-32q-42 -6 -70 -37h177q-14 17 -33 26t-42 11zM257 -89v29h-113v-29h113zM523 -89v29h-112v-29h112z" />
    <glyph glyph-name="FL2026h" unicode="&#x2026;" horiz-adv-x="851" 
d="M603 68h208q4 10 6.5 20.5t2.5 21.5h-225q0 -21 8 -42zM39 68h208q4 10 6.5 20.5t2.5 21.5h-225q0 -21 8 -42zM321 68h208q4 10 6.5 20.5t2.5 21.5h-225q0 -21 8 -42zM523 166h-197q-9 -18 -12 -39h223q-3 20 -14 39zM805 166h-197q-9 -18 -12 -39h223q-3 20 -14 39z
M241 166h-197q-9 -18 -12 -39h223q-3 20 -14 39zM382 8h85q35 14 54 45h-192q18 -31 53 -45zM664 8h85q35 14 54 45h-192q18 -31 53 -45zM100 8h85q35 14 54 45h-192q18 -31 53 -45zM720 223h-27q-43 -6 -71 -37h169q-28 31 -71 37zM156 223h-27q-43 -6 -71 -37h169
q-28 31 -71 37zM438 223h-27q-43 -6 -71 -37h169q-28 31 -71 37z" />
    <glyph glyph-name="FL2020h" unicode="&#x2020;" horiz-adv-x="442" 
d="M31 364h380v28h-380v-28zM109 8h223v45h-223v-45zM109 68h223v42h-223v-42zM31 424h380v24h-380v-24zM109 127h223v39h-223v-39zM109 186h223v37h-223v-37zM109 246h223v33h-223v-33zM109 305h223v31h-223v-31zM109 483h223v22h-223v-22zM109 542h223v19h-223v-19z
M332 617h-223v-15h223v15z" />
    <glyph glyph-name="FL2021h" unicode="&#x2021;" horiz-adv-x="442" 
d="M31 246h380v33h-380v-33zM109 206v-20h223v20h79v17h-380v-17h78zM31 364h380v28h-380v-28zM109 8h223v45h-223v-45zM109 68h223v42h-223v-42zM31 424h380v24h-380v-24zM31 318v-13h380v13h-79v18h-223v-18h-78zM109 127h223v39h-223v-39zM109 483h223v22h-223v-22z
M109 542h223v19h-223v-19zM332 617h-223v-15h223v15z" />
    <glyph glyph-name="FL02C6h" unicode="&#x2c6;" horiz-adv-x="463" 
d="M408 561h-354q-3 -5 -5.5 -9.5t-4.5 -9.5h178q2 0 4 0.5t4 0.5h3q2 0 3.5 -0.5t3.5 -0.5h179q-5 10 -11 19zM341 618h-223q-7 -4 -13.5 -7.5t-12.5 -8.5h276q-6 5 -12.5 8.5t-14.5 7.5zM430 505h-135q5 -9 6 -19v-3h131q0 5 -0.5 11t-1.5 11zM167 505h-134
q-1 -5 -1.5 -11t-0.5 -11h131v3q0 9 5 19z" />
    <glyph glyph-name="FL2030h" unicode="&#x2030;" horiz-adv-x="1165" 
d="M823 8h285q23 15 26 41v4h-665v-4q0 -13 8 -23.5t19 -17.5h285q12 7 20 24q3 -8 9 -14t13 -10zM469 68h665v42h-665v-42zM799 279h-491l-8 -33h834v12q-2 12 -7 21h-325q-1 -1 -1 -3l-1 1q0 1 -1 2zM1008 186h126v37h-840l-10 -37h311v25h85v-25h243v25h85v-25zM315 305
h456q-4 2 -8 2.5t-8 1.5h-236l-3 -1l7 28h-487q7 -12 19 -19.5t25 -9.5h236zM31 364h500l7 28h-507v-28zM469 127h126v39h-316l-11 -39h200l1 3v-3zM242 432h-85v16h-126v-24h516l6 24h-311v-16zM680 127h243v39h-243v-39zM237 8h200l12 45h-200zM253 68h200l11 42h-200z
M242 483h320l6 22h-199l-1 -4v4h-126v-22zM31 542h337v19h-337v-19zM1008 127h126v39h-126v-39zM48 602h301q-14 11 -32 14h-237q-8 -2 -16.5 -5t-15.5 -9zM378 542h200l5 19h-200zM394 602h200l4 15h-200zM31 483h126v22h-126v-22zM831 305h268q-4 2 -8 2.5t-8 1.5h-237
q-10 -2 -15 -4z" />
    <glyph glyph-name="FL0161h" unicode="&#x160;" horiz-adv-x="742" 
d="M681 53h-650v-45h601q14 7 26.5 19t22.5 26zM708 110h-677v-42h660q6 11 10 21t7 21zM31 127h680v39h-680v-39zM31 186h680v37h-230v-1h-450v-36zM67 305h637q-3 8 -8 15.5t-11 15.5h-645q5 -8 11 -16t16 -15zM32 364h620q-21 13 -51 20.5t-68 7.5h-499q-1 -5 -1.5 -11
t-0.5 -11v-6zM67 483h644v22h-629q-4 -5 -7.5 -11t-7.5 -11zM117 542h594v19h-569q-14 -9 -25 -19zM710 279h-229v-33h230v22q0 7 -1 11zM228 602h483v15h-378q-28 0 -54.5 -4t-50.5 -11zM41 424h259q12 8 25.5 14.5t28.5 9.5h-304zM208 721h335q2 2 4 4.5t4 5.5h-351
q2 -3 4 -5.5t4 -4.5zM311 661h135q20 5 37 13h-212q18 -8 40 -13zM179 780h139q-2 2 -2.5 3.5t-2.5 3.5h-136q1 -2 1 -4q0 -1 1 -3zM432 780h140q0 2 0.5 3.5t0.5 3.5h-136q-1 -3 -5 -7z" />
    <glyph glyph-name="FL2039h" unicode="&#x2039;" horiz-adv-x="244" 
d="M78 186h135v37h-160q11 -21 25 -37zM156 279h-122q2 -9 3.5 -17t4.5 -16h171v21h-28q-17 2 -29 12zM43 424h170v24h-160q-3 -6 -5.5 -12t-4.5 -12zM128 335v1h-97v-22v-9h105q-7 15 -8 30zM31 364h104q6 16 19 28h-119q-2 -7 -2.5 -14t-1.5 -14zM76 483h137v22h-115
q-12 -10 -22 -22zM213 136v30h-113q38 -30 89 -30h24z" />
    <glyph glyph-name="FL0152h" unicode="&#x152;" horiz-adv-x="1069" 
d="M130 68h908v42h-951q20 -25 43 -42zM75 127h963v39h-985q10 -23 22 -39zM35 223q2 -10 4.5 -19t5.5 -18h993v37h-1003zM31 483h1007v22h-1007v-22zM31 542h1007v19h-1007v-19zM258 8h335v45h-442q23 -16 50.5 -27.5t56.5 -17.5zM703 8h335v45h-442q24 -16 51 -27.5
t56 -17.5zM476 305h561v31h-561v-31zM1037 392h-561v-28h561v28zM31 602h1007v15h-1007v-15zM32 246h272q-21 15 -34 33h-239v-7v-14q0 -6 1 -12zM715 279h-239v-7v-14q0 -6 1 -12h271q-10 7 -18.5 15t-14.5 18zM256 320v16h-225v-31h227q-2 10 -2 15zM31 364h225v28h-225
v-28zM31 424h225v24h-225v-24zM476 424h225v24h-225v-24z" />
    <glyph glyph-name="FL017Dh" unicode="&#x17d;" horiz-adv-x="623" 
d="M31 8h561v45h-561v-45zM31 68h561v42h-561v-42zM31 127h561v39h-561v-39zM31 223v-37h561v37h-561zM31 483h561v22h-561v-22zM31 542h561v19h-561v-19zM31 602h561v15h-561v-15zM64 246h229l49 33h-230zM150 305h230l45 31h-230zM235 364h231l41 28h-231zM322 424h232
l35 24h-232zM143 721h335q2 2 4 4.5t4 5.5h-351q2 -3 4 -5.5t4 -4.5zM246 661h135q20 5 37 13h-212q18 -8 40 -13zM114 780h139q-2 2 -2.5 3.5t-2.5 3.5h-136q1 -2 1 -4q0 -1 1 -3zM367 780h140q0 2 0.5 3.5t0.5 3.5h-136q-1 -3 -5 -7z" />
    <glyph glyph-name="FL2018h" unicode="&#x2018;" horiz-adv-x="288" 
d="M253 392h-222v-28h210q7 11 12 28zM253 448h-222v-24h226q-1 6 -1.5 12t-2.5 12zM145 308q42 0 73 28h-187v-28h114zM218 505h-187v-22h207q-10 13 -20 22zM31 542h113v19h-113v-19zM31 602h113v16h-113v-16z" />
    <glyph glyph-name="FL2019h" unicode="&#x2019;" horiz-adv-x="288" 
d="M33 483h224v22h-226q0 -6 0.5 -11.5t1.5 -10.5zM68 424h189v24h-210q9 -14 21 -24zM36 542h221v19h-213q-5 -10 -8 -19zM257 308v28h-113v-28h113zM144 364h113v28h-113v-28zM80 602h177v16h-140q-19 -4 -37 -16z" />
    <glyph glyph-name="FL201Ch" unicode="&#x201c;" horiz-adv-x="555" 
d="M520 392h-222v-28h211q8 13 11 28zM253 392h-222v-28h210q7 11 12 28zM521 448h-223v-24h226q-1 6 -1 12t-2 12zM253 448h-222v-24h226q-1 6 -1.5 12t-2.5 12zM413 308q43 0 73 28h-188v-28h115zM145 308q42 0 73 28h-187v-28h114zM486 505h-188v-22h207q-4 6 -9 11.5
t-10 10.5zM218 505h-187v-22h207q-10 13 -20 22zM298 542h113v19h-113v-19zM31 542h112v19h-112v-19zM298 602h113v16h-113v-16zM31 602h112v16h-112v-16z" />
    <glyph glyph-name="FL201Dh" unicode="&#x201d;" horiz-adv-x="555" 
d="M33 483h224v22h-226q0 -6 0.5 -11.5t1.5 -10.5zM301 483h223v22h-226q0 -12 3 -22zM68 424h189v24h-210q9 -14 21 -24zM336 424h188v24h-209q9 -14 21 -24zM36 542h221v19h-213q-5 -10 -8 -19zM303 542h221v19h-213q-5 -10 -8 -19zM257 308v28h-113v-28h113zM144 364h113
v28h-113v-28zM412 364h112v28h-112v-28zM524 308v28h-112v-28h112zM80 602h177v16h-140q-19 -4 -37 -16zM348 602h176v16h-139q-19 -4 -37 -16z" />
    <glyph glyph-name="FL2022h" unicode="&#x2022;" 
d="M704 99v11h-673v-11q0 -15 8 -31h656q8 15 9 31zM687 53h-640q20 -31 52 -45h537q32 14 51 45zM31 127h673v39h-673v-39zM31 186h673v37h-673v-37zM31 246h673v33h-673v-33zM31 305h673v31h-673v-31zM31 364h673v28h-673v-28zM31 424h673v24h-673v-24zM31 483h673v22
h-673v-22zM691 561h-647q-5 -10 -8 -19h663q-4 12 -8 19zM604 617h-474q-25 -3 -44 -15h566q-23 12 -48 15z" />
    <glyph glyph-name="FL2013h" unicode="&#x2013;" horiz-adv-x="401" 
d="M31 305h339v31h-339v-31zM31 364h339v28h-339v-28z" />
    <glyph glyph-name="FL2014h" unicode="&#x2014;" horiz-adv-x="480" 
d="M31 305h418v31h-418v-31zM31 392v-28h418v28h-418z" />
    <glyph glyph-name="FL02DCh" unicode="&#x2dc;" horiz-adv-x="561" 
d="M520 561h-155q-4 -1 -11 -1t-11 1h-295q-2 -5 -4 -9.5t-4 -9.5h149q2 1 4 1q3 0 6 1q2 -1 4 -1q3 0 5 -1h304q2 5 4 9.5t4 9.5zM485 505h-228q5 -6 11 -11.5t12 -10.5h178q16 10 27 22zM274 618h-176q-5 -4 -10 -7.5t-10 -8.5h212q-4 4 -7.5 8t-8.5 8zM31 484v-1h115v6
q0 8 3 16h-117q-1 -5 -1 -11v-10zM530 618h-116v-3q-1 -4 -1 -7t-1 -6h117q1 5 1 16z" />
    <glyph glyph-name="FL2122h" unicode="&#x2122;" horiz-adv-x="362" 
d="M31 661h130v13h-130v-13zM284 561h-48l7 -19h33q2 4 4 8.5t4 10.5zM270 602h28q2 4 3 7.5t3 8.5h-30v-2q-2 -5 -2.5 -8t-1.5 -6zM84 542h24v19h-24v-19zM221 602h26l-5 16h-27zM186 673v-12h35q-3 4 -6 7.5t-6 5.5h-19q-2 -1 -3 -1h-1zM84 602h24v16h-24v-16zM298 661h33
v13h-23q-4 -4 -10 -13zM315 542h16v19h-16v-19zM186 542h16v19h-16v-19zM315 602h16v16h-16v-16zM186 602h16v16h-16v-16z" />
    <glyph glyph-name="FL0160h" unicode="&#x161;" 
d="M689 53h-658v-45h605q34 14 53 45zM704 100v10h-673v-42h665q7 16 8 32zM31 127h673v39h-673v-39zM31 186h673v37h-673v-37zM689 336h-644q5 -9 12.5 -16.5t15.5 -14.5h629q-2 8 -5 15.5t-8 15.5zM31 392v-12q0 -5 0.5 -8.5t1.5 -7.5h633q-13 11 -29 18.5t-33 9.5h-573z
M31 483h673v22h-673v-22zM36 542h668v19h-659q-5 -8 -9 -19zM87 602h617v15h-573q-23 -3 -44 -15zM481 246h223v33h-223v-33zM31 424h223v24h-223v-24zM199 721h335q2 2 4 4.5t4 5.5h-351q2 -3 4 -5.5t4 -4.5zM302 661h135q20 5 37 13h-212q18 -8 40 -13zM170 780h139
q-2 2 -2.5 3.5t-2.5 3.5h-136q1 -2 1 -4q0 -1 1 -3zM423 780h140q0 2 0.5 3.5t0.5 3.5h-136q-1 -3 -5 -7z" />
    <glyph glyph-name="FL203Ah" unicode="&#x203a;" horiz-adv-x="244" 
d="M191 223h-160v-37h134q17 18 26 37zM59 267h-28v-21h170q6 15 9 33h-123q-12 -10 -28 -12zM190 448h-159v-24h169q-2 6 -4.5 12t-5.5 12zM107 305h106v9v22h-97v-1q-2 -17 -9 -30zM209 392h-119q11 -12 19 -28h103q0 7 -1 14zM145 505h-114v-22h137q-5 6 -11 11.5
t-12 10.5zM55 136q50 0 89 30h-113v-30h24z" />
    <glyph glyph-name="FL0153h" unicode="&#x153;" horiz-adv-x="1082" 
d="M99 8h952v45h-1004q18 -31 52 -45zM38 68h1013v42h-1020v-11q0 -14 7 -31zM31 127h1020v39h-1020v-39zM31 223v-37h1020v37h-1020zM31 483h1020v22h-1020v-22zM36 542h1015v19h-1006q-5 -8 -9 -19zM490 305h561v31h-561v-31zM490 392v-28h561v28h-561zM87 602h964v15
h-920q-23 -3 -44 -15zM31 246h223v33h-223v-33zM490 246h223v33h-223v-33zM31 305h223v31h-223v-31zM31 364h223v28h-223v-28zM490 424h223v24h-223v-24zM31 424h223v24h-223v-24z" />
    <glyph glyph-name="FL017Eh" unicode="&#x17e;" 
d="M31 8h673v45h-673v-45zM31 68h673v42h-673v-42zM31 127h673v39h-673v-39zM31 223v-37h673v37h-673zM689 336h-644q-10 -17 -13 -31h630q8 7 15 14.5t12 16.5zM131 392q-17 -2 -33 -9.5t-30 -18.5h633q1 4 1.5 7.5t1.5 8.5v12h-573zM31 483h673v22h-673v-22zM31 542h673
v19h-673v-19zM31 602h673v15h-673v-15zM31 246h223v33h-223v-33zM481 424h223v24h-223v-24zM199 721h335q2 2 4 4.5t4 5.5h-351q2 -3 4 -5.5t4 -4.5zM302 661h135q20 5 37 13h-212q18 -8 40 -13zM170 780h139q-2 2 -2.5 3.5t-2.5 3.5h-136q1 -2 1 -4q0 -1 1 -3zM423 780h140
q0 2 0.5 3.5t0.5 3.5h-136q-1 -3 -5 -7z" />
    <glyph glyph-name="FL0178h" unicode="&#x178;" horiz-adv-x="678" 
d="M624 166h-523v-39h501q6 9 11.5 18.5t10.5 20.5zM642 223h-541v-37h531q3 9 5.5 18t4.5 19zM589 110h-488v-42h445q26 20 43 42zM115 305h532v31h-572q18 -19 40 -31zM525 53h-424v-45h318q29 6 55.5 17.5t50.5 27.5zM55 364h592v28h-604q5 -17 12 -28zM647 272v7h-239
q-14 -20 -33 -33h270q1 6 1.5 12.5t0.5 13.5zM35 424h241q-8 10 -12 24h-233q2 -14 4 -24zM422 424h225v24h-225v-24zM256 490v15h-225v-22h226q-1 2 -1 7zM422 483h225v22h-225v-22zM31 542h225v19h-225v-19zM422 542h225v19h-225v-19zM422 602h225v15h-225v-15zM31 602
h225v15h-225v-15zM325 731h-180q0 -4 2 -10h176q1 2 1 4q0 3 1 6zM542 731h-179q0 -4 2 -10h175q1 2 1 4q0 3 1 6zM291 674h-114q9 -8 23 -13h67q14 5 24 13zM509 674h-113q9 -8 23 -13h67q13 4 23 13zM150 780h169q-1 2 -1.5 3.5t-1.5 3.5h-162q-1 -2 -2 -3.5t-2 -3.5z
M368 780h168q-2 4 -3 7h-162q-1 -2 -1.5 -3.5t-1.5 -3.5z" />
    <glyph glyph-name="FL00A1h" unicode="&#xa1;" horiz-adv-x="287" 
d="M31 8h225v45h-225v-45zM31 68h225v42h-225v-42zM31 127h225v39h-225v-39zM31 186h225v37h-225v-37zM31 246h225v33h-225v-33zM31 305h225v31h-225v-31zM33 483h220q3 10 3 22h-225q0 -6 0.5 -11.5t1.5 -10.5zM67 424h153q11 10 19 24h-191q8 -14 19 -24zM241 561h-196
q-5 -10 -8 -19h213q-2 5 -4 9.5t-5 9.5zM144 617q-16 0 -30 -4t-27 -11h113q-12 7 -26.5 11t-29.5 4z" />
    <glyph glyph-name="FL00A2h" unicode="&#xa2;" horiz-adv-x="623" 
d="M56 127h536v39h-558q4 -11 9 -21t13 -18zM31 186h561v37h-561v-37zM31 246h561v33h-561v-33zM332 365v-1h111v1h149v27h-561v-28h223v1h78zM592 87v23h-518q13 -10 27.5 -16t29.5 -7h201v-19h111v19h149zM31 424h561v24h-559q-2 -10 -2 -16v-8zM49 483h543v22h-522
q-13 -11 -21 -22zM443 310v26h-111v-26h-78v26h-223v-31h561v5h-149zM332 8h111v45h-111v-45zM332 542h111v19h-111v-19zM443 616h-111v-14h111v14z" />
    <glyph glyph-name="FL00A3h" unicode="&#xa3;" horiz-adv-x="734" 
d="M31 8h672v45h-672v-45zM31 68h672v42h-672v-42zM31 127h672v39h-672v-39zM31 223v-37h672v37h-672zM31 305h552v31h-552v-31zM31 364h552v28h-552v-28zM155 246h224v33h-224v-33zM155 483h299v22h-299v-22zM160 542h294v19h-286q-5 -10 -8 -19zM155 424h224v24h-224v-24z
M208 602h246v15h-199q-26 -3 -47 -15z" />
    <glyph glyph-name="FL00A4h" unicode="&#xa4;" horiz-adv-x="764" 
d="M120 127h524l-27 39h-470zM161 186h442l-10 14v23h-421v-21zM172 246h421v33h-421v-33zM474 8h253l-31 45h-250zM36 8h254l27 45h-249zM436 68h249l-29 42h-246zM78 68h248l26 42h-244zM172 424h421v24h-421v-24zM166 483h430l14 22h-458zM172 305h158v31h-158v-31z
M436 305h157v31h-157v-31zM172 364h158v28h-158v-28zM436 364h157v28h-157v-28zM415 542h219l13 19h-218zM128 542h218l-13 19h-217zM80 617l9 -15h216l-10 15h-215zM683 617h-214l-11 -15h215z" />
    <glyph glyph-name="FL00A5h" unicode="&#xa5;" horiz-adv-x="822" 
d="M631 53h-529v-45h478q32 14 51 45zM647 100v10h-545v-42h536q7 15 9 32zM791 206v17h-689v-37h545v20h144zM31 392v-12q0 -5 0.5 -8.5t1.5 -7.5h758v28h-760zM102 127h545v39h-545v-39zM791 318h-144v18h-602q5 -9 12.5 -16.5t15.5 -14.5h718v13zM423 246h368v33h-368
v-33zM423 424h368v24h-368v-24zM31 424h223v24h-223v-24zM423 483h224v22h-224v-22zM31 483h223v22h-223v-22zM423 542h224v19h-224v-19zM31 542h223v19h-223v-19zM647 617h-224v-15h224v15zM254 617h-223v-15h223v15z" />
    <glyph glyph-name="FL00A6h" unicode="&#xa6;" horiz-adv-x="285" 
d="M31 -51h223v48h-223v-48zM31 8h223v45h-223v-45zM31 68h223v42h-223v-42zM31 127h223v39h-223v-39zM31 186h223v37h-223v-37zM31 246h223v33h-223v-33zM31 305h223v31h-223v-31zM31 364h223v28h-223v-28zM254 -86v26h-223v-26h223zM31 424h223v24h-223v-24zM31 483h223
v22h-223v-22zM31 542h223v19h-223v-19zM31 602h223v16h-223v-16zM31 661h223v13h-223v-13z" />
    <glyph glyph-name="E" unicode="&#xa7;" horiz-adv-x="623" 
d="M31 8h561v45h-561v-45zM31 68h561v42h-561v-42zM31 127h561v39h-561v-39zM31 186h561v37h-561v-37zM31 305h561v31h-561v-31zM31 364h561v28h-561v-28zM31 483h561v22h-561v-22zM31 542h561v19h-561v-19zM31 602h561v15h-561v-15z" />
    <glyph glyph-name="FL00A9h" unicode="&#xa8;" horiz-adv-x="461" 
d="M31 548v-6h182v6q0 8 -1 13h-181v-13zM430 548v6q0 4 -1 7h-180v-13v-6h181v6zM202 505h-161q8 -14 17 -22h127q12 10 17 22zM419 505h-160q4 -7 8 -12t9 -10h127q11 11 16 22zM47 602h148q-3 5 -6.5 8.5l-7.5 7.5h-119q-10 -8 -15 -16zM266 602h147q-3 5 -6.5 8.5
l-7.5 7.5h-119q-8 -6 -14 -16z" />
    <glyph glyph-name="FL00AEh" unicode="&#xa9;" horiz-adv-x="272" 
d="M84 483h102q15 8 27 22h-24q-2 -2 -5 -3.5t-5 -3.5q-31 -11 -42 -11h-2q-7 0 -19.5 2t-23.5 9q-6 3 -10 7h-23q5 -6 10.5 -10.5t14.5 -11.5zM137 662h3q3 0 5.5 -0.5t5.5 -0.5h41q-4 2 -6 4q-9 2 -16.5 4.5l-13.5 4.5h-47q-8 -2 -14.5 -5.5t-13.5 -7.5h41q4 0 7.5 0.5
t7.5 0.5zM164 602h19q-3 10 -8 16h-35q15 -2 24 -16zM133 618h-38q-6 -8 -9 -16h20q8 15 27 16zM101 561h-19q1 -10 5 -19h22q-6 6 -8 19zM36 542h19q-5 9 -6 19h-18q1 -5 2 -9.5t3 -9.5zM240 561h-17q-1 -10 -6 -19h17q5 11 6 19zM35 602h18q3 8 8 16h-19q-2 -4 -3.5 -8
t-3.5 -8zM229 618h-18q5 -8 8 -16h17q-2 4 -3.5 7.5t-3.5 8.5zM170 558q-2 -5 -4 -9t-5 -7h21q2 4 4 10z" />
    <glyph glyph-name="A" unicode="&#xaa;" horiz-adv-x="736" 
d="M31 305h674v31h-674v-31zM31 364h673q0 7 -1 14l-2 14h-666q-2 -7 -2.5 -14t-1.5 -14zM70 483h595q-4 5 -7.5 11t-7.5 11h-564q-5 -5 -8.5 -11t-7.5 -11zM31 8h223v45h-223v-45zM482 8h223v45h-223v-45zM31 68h223v42h-223v-42zM482 68h223v42h-223v-42zM121 542h493
q-6 5 -12.5 9.5t-13.5 9.5h-441q-7 -5 -13.5 -9.5t-12.5 -9.5zM31 127h223v39h-223v-39zM482 127h223v39h-223v-39zM31 186h223v37h-223v-37zM482 186h223v37h-223v-37zM31 246h223v33h-223v-33zM482 246h223v33h-223v-33zM684 448h-302q15 -3 29 -9.5t26 -14.5h256l-4 12
t-5 12zM43 424h256q26 18 54 24h-302l-4 -12zM235 602h266q-48 14 -98 14h-70q-50 0 -98 -14z" />
    <glyph glyph-name="FL00ABh" unicode="&#xab;" horiz-adv-x="472" 
d="M78 186h135v37h-160q11 -21 25 -37zM306 186h135v37h-160q11 -21 25 -37zM384 279h-122q2 -9 3.5 -17t4.5 -16h171v21h-28q-17 2 -29 12zM156 279h-122q2 -9 3.5 -17t4.5 -16h171v21h-28q-17 2 -29 12zM43 424h170v24h-160q-3 -6 -5.5 -12t-4.5 -12zM271 424h170v24h-160
q-3 -6 -5.5 -12t-4.5 -12zM356 335v1h-97v-22v-9h105q-7 15 -8 30zM128 335v1h-97v-22v-9h105q-7 15 -8 30zM31 364h104q6 16 19 28h-119q-2 -7 -2.5 -14t-1.5 -14zM259 364h104q6 16 19 28h-119q-2 -7 -2.5 -14t-1.5 -14zM304 483h137v22h-115q-12 -10 -22 -22zM76 483h137
v22h-115q-12 -10 -22 -22zM441 136v30h-113q38 -30 89 -30h24zM213 136v30h-113q38 -30 89 -30h24z" />
    <glyph glyph-name="FL00ACh" unicode="&#xac;" horiz-adv-x="437" 
d="M31 305h375v31h-375v-31zM406 392h-375v-28h375v28zM294 186h112v37h-112v-37zM294 246h112v33h-112v-33zM406 160v6h-112v-6h112z" />
    <glyph glyph-name="FL00ADh" unicode="&#xad;" horiz-adv-x="319" 
d="M31 305h257v31h-257v-31zM31 364h257v28h-257v-28z" />
    <glyph glyph-name="FL00B2h" unicode="&#xae;" horiz-adv-x="272" 
d="M83 483h101q18 8 30 22h-29q-12 -11 -23 -14.5t-25 -3.5h-4q-10 0 -23 5t-24 13h-30q14 -15 27 -22zM137 661h3h3h47q-2 0 -4 2q-5 4 -11 6.5t-12 4.5h-56q-11 -4 -23 -11q-2 -1 -3 -1l-2 -1h53h5zM170 615q-1 1 -2 1.5t-2 1.5h-75v-16h17v10h38q9 -5 11 -10h19
q-1 5 -6 13zM35 542h21q-2 6 -3 10.5t-2 8.5h-20q2 -12 4 -19zM132 558q5 -2 15 -16h19q-9 13 -15 19h-23q1 -1 2 -1.5t2 -1.5zM240 561h-19q-1 -8 -6 -19h19q2 5 3.5 9.5t2.5 9.5zM91 542h17v19h-17v-19zM40 612q-1 -3 -2 -5.5t-2 -4.5h17q2 4 4 7.5t4 7.5v1h-18zM229 618
h-18q2 -4 3.5 -8t3.5 -8h18q-2 4 -3.5 7.5t-3.5 8.5z" />
    <glyph glyph-name="FL00AFh" unicode="&#xaf;" horiz-adv-x="596" 
d="M31 483h534v22h-534v-22zM31 542h534v19h-534v-19zM31 602h534v15h-534v-15z" />
    <glyph glyph-name="FL00B0h" unicode="&#xb0;" horiz-adv-x="244" 
d="M59 483h125q11 9 18 22h-160q5 -12 17 -22zM182 618h-121l-7.5 -7.5t-6.5 -8.5h149q-3 5 -6.5 8.5zM151 549q0 -2 -0.5 -3.5t-0.5 -3.5h63v7q0 8 -1 12h-65q4 -8 4 -12zM31 549v-7h61q-1 2 -1 7q0 6 3 12h-63v-12z" />
    <glyph glyph-name="FL00B1h" unicode="&#xb1;" horiz-adv-x="437" 
d="M31 8h375v45h-375v-45zM31 68h375v42h-375v-42zM31 305h375v31h-375v-31zM31 364h375v28h-375v-28zM163 186h112v37h-112v-37zM163 246h112v33h-112v-33zM163 424h112v24h-112v-24zM163 483h112v22h-112v-22zM275 160v6h-112v-6h112z" />
    <glyph glyph-name="FL00B3h" unicode="&#xb2;" horiz-adv-x="400" 
d="M34 364h335v28h-338v-12q0 -9 3 -16zM31 424h338v24h-338v-24zM31 483h317q12 10 17 22h-325q-8 -11 -9 -22zM33 542h336v19h-336v-19zM357 618h-324v-16h333q-3 8 -9 16zM81 331h288v5h-305q8 -5 17 -5z" />
    <glyph glyph-name="FL00BCh" unicode="&#xb3;" horiz-adv-x="398" 
d="M367 386v6h-336v-28h331q5 10 5 22zM31 424h336v24h-336v-24zM31 483h336v22h-336v-22zM31 542h336v19h-336v-19zM354 618h-323v-16h333q-4 10 -10 16zM313 330q5 1 11 2t11 4h-304v-6h282z" />
    <glyph glyph-name="FL00B4h" unicode="&#xb4;" horiz-adv-x="261" 
d="M218 561h-166q-12 -5 -22 -5v-14h178q5 8 10 19zM177 505h-147v-22h115q20 10 32 22zM229 617v1h-131v-5q-1 -3 -1 -6t-1 -5h132q1 5 1 15z" />
    <glyph glyph-name="mu" unicode="&#xb5;" horiz-adv-x="1126" 
d="M367 68h22l14 28l-195 7l11 7h-32v-20l182 -15zM569 493l2 12h-18l3 -22h112l74 10l-3 -10h21l3 22h-87l-104 -19zM200 127h46l19 12l-128 27h-62q4 -11 19 -11l114 -20zM159 424h31l3 17q8 -5 15 -9.5t15 -7.5h63l24 24h-31l-9 -12l-39 12h-63q-6 -9 -9 -24zM731 268
h-39l6 11h-27q-4 -8 -7.5 -16.5t-5.5 -16.5h96v33h-28zM516 246h61v33h-22l-2 -32l-32 32h-41v-33h22v16q4 -5 7 -8.5t7 -7.5zM815 246h56v33h-25l-1 -30l-28 30h-42v-33h22v22q5 -6 9 -11.5t9 -10.5zM580 11l88 42h-48l-48 -22l7 22h-21v-34zM382 31l155 22h-149l-6 -1v1
h-19l-2 -10zM39 247l2 -1h53l-41 20l90 5l-7 8h-99l-6 -1zM1072 278l-90 -7q7 -7 13 -13.5t11 -11.5h20l-9 12h62l10 21h-18zM80 186h40l53 22l-31 15h-48l23 -10zM71 364h110l4 28h-30v-24l-82 8zM714 75l8 -7h37l-45 28l-61 -28h46zM1008 336h-39l65 -31h44q-20 13 -70 31
zM447 223h-92v-1q10 -18 43 -18q5 0 9.5 0.5t11.5 1.5q17 0 28 17zM960 103l1 7h-22v-2l-7 2h-61q20 -11 33 -16t30 -5q21 0 26 14zM686 305h28l1 1v-1h35q-12 28 -31 28q-16 0 -17 -4q-5 -6 -8.5 -12t-7.5 -12zM789 68h28l41 42h-32zM1014 392h-70l79 -16l8 -12h21
q2 6 2 10v8zM312 483h33l10 10l14 -10h36l-38 22h-27q-14 -9 -28 -22zM285 223h-20q13 -28 40 -28q6 0 10 2t15 4l-1 19q-6 -3 -24 -3q-13 0 -20 6zM378 305h80q-12 20 -42 20h-15q-7 -5 -12.5 -9.5t-10.5 -10.5zM346 328q-46 -6 -69 -23h67zM291 279h-34q-2 -10 -2 -17v-8
q0 -5 2 -7v-1h22q2 18 12 33zM940 127h23l4 39h-24zM605 246h28l2 33h-26zM939 448h-22l-35 -24h47q8 7 10 24zM474 483l48 22h-38l-48 -22h38zM901 246h22l5 33h-26zM356 246h25v8v8q2 5 3.5 9t3.5 8h-25q-2 -8 -3.5 -16t-3.5 -17zM212 246h24l2 33h-22zM1045 223h-19
q16 -22 16 -30l-1 -1t-2 -6h20q0 2 0.5 4t0.5 4v5l-3 9zM441 270q0 -8 -0.5 -13.5t-2.5 -10.5h19q5 16 8 33h-25q0 -3 0.5 -5t0.5 -4zM945 186h94l-93 14zM935 325l-30 5l-1 -25h28zM793 43l9 10h-63l19 -16zM479 68h90l-11 13zM93 336h-23l26 -31h18l-20 24zM638 330
l-24 -5l-2 -20h24zM848 305h23v20l-22 5zM924 204l-19 8l-15 -12l15 -14zM577 206v17h-37q20 -17 37 -17zM242 325l-21 -3l-2 -17h21zM502 208v15h-22v-19zM234 213v10h-24l-2 -19zM556 305h21v15l-19 5zM631 217v6h-29l-1 -13zM797 212v11h-22v-13zM871 211v12h-31
q16 -12 31 -12zM682 223h-31q0 -2 -0.5 -4t-0.5 -4h27q2 2 2.5 4t2.5 4zM775 305h18l-18 20v-20zM754 212v11h-21q2 -2 2.5 -4t2.5 -4zM842 127h33l-26 8zM480 305h15l-15 15v-15z" />
    <glyph glyph-name="FL00B6h" unicode="&#xb6;" 
d="M30 483h673v22h-673v-22zM34 542h669v19h-661q-2 -5 -4 -9.5t-4 -9.5zM129 -51h223v48h-223v-48zM480 -51h223v48h-223v-48zM129 8h223v45h-223v-45zM480 8h223v45h-223v-45zM129 68h223v42h-223v-42zM480 68h223v42h-223v-42zM72 305h280v31h-307q10 -17 27 -31z
M703 -101v41h-223v-41h223zM129 -101h223v41h-223v-41zM703 617h-573q-27 -3 -48 -15h621v15zM33 364h319v28h-322v-12q0 -9 3 -16zM480 127h223v39h-223v-39zM129 127h223v39h-223v-39zM480 186h223v37h-223v-37zM129 186h223v37h-223v-37zM30 424h322v24h-322v-24z
M480 246h223v33h-223v-33zM129 246h223v33h-222zM480 305h223v31h-223v-31zM480 364h223v28h-223v-28zM480 424h223v24h-223v-24z" />
    <glyph glyph-name="FL00B9h" unicode="&#xb7;" horiz-adv-x="287" 
d="M35 305h216q5 17 5 31h-225q0 -18 4 -31zM241 392h-197q-3 -7 -5.5 -13.5t-4.5 -14.5h218q-3 13 -11 28zM77 246h130q19 12 32 33h-192q6 -10 13.5 -18.5t16.5 -14.5zM163 448h-41q-30 -6 -52 -24h144q-21 18 -51 24z" />
    <glyph glyph-name="FL00B8h" unicode="&#xb8;" horiz-adv-x="177" 
d="M-96 -110h242v50h-242v-50zM146 -153v37h-242v-37h242zM-96 -41v-10h242v48h-112v-38h-130z" />
    <glyph glyph-name="FL00BAh" unicode="&#xb9;" horiz-adv-x="226" 
d="M69 364h126v28h-126v-28zM31 542h164v19h-164v-19zM69 424h126v24h-126v-24zM69 483h126v22h-126v-22zM31 602h164v16h-164v-16zM195 331v5h-126v-5h126z" />
    <glyph glyph-name="FL00B7h" unicode="&#xba;" horiz-adv-x="399" 
d="M368 380v12h-337v-12q0 -9 3 -16h329q2 4 3 7.5t2 8.5zM31 424h337v24h-337v-24zM368 542v19h-337v-19h337zM356 618h-315q-6 -8 -9 -16h333q-3 8 -9 16zM31 483h126v22h-126v-22zM242 483h126v22h-126v-22zM80 331h237q10 0 20 5h-274q10 -5 17 -5z" />
    <glyph glyph-name="FL00BBh" unicode="&#xbb;" horiz-adv-x="472" 
d="M191 223h-160v-37h134q17 18 26 37zM419 223h-160v-37h134q17 18 26 37zM287 267h-28v-21h170q6 15 9 33h-123q-12 -10 -28 -12zM59 267h-28v-21h170q6 15 9 33h-123q-12 -10 -28 -12zM418 448h-159v-24h169q-2 6 -4.5 12t-5.5 12zM190 448h-159v-24h169q-2 6 -4.5 12
t-5.5 12zM107 305h106v9v22h-97v-1q-2 -17 -9 -30zM335 305h106v9v22h-97v-1q-2 -17 -9 -30zM209 392h-119q11 -12 19 -28h103q0 7 -1 14zM437 392h-119q11 -12 19 -28h103q0 7 -1 14zM373 505h-114v-22h137q-5 6 -11 11.5t-12 10.5zM145 505h-114v-22h137q-5 6 -11 11.5
t-12 10.5zM55 136q50 0 89 30h-113v-30h24zM283 136q50 0 89 30h-113v-30h24z" />
    <glyph glyph-name="FL00BEh" unicode="&#xbc;" horiz-adv-x="805" 
d="M437 127h337v39h-337v-39zM563 198v25h-126v-37h337v37h-126v-25h-85zM136 8h200l12 45h-200zM152 68h200l11 42h-200zM167 127h200l11 39h-200zM183 186h200l10 37h-200zM437 102h211v-34h126v42h-337v-8zM199 246h200l8 33h-200zM214 305h200l8 31h-200zM648 8h126v45
h-126v-45zM230 364h200l7 28h-200zM246 424h200l6 24h-200zM261 483h200l6 22h-200zM648 246h126v33h-126v-33zM437 246h126v33h-126v-33zM277 542h200l5 19h-200zM195 306v30h-126v-30h126zM69 364h126v28h-126v-28zM31 542h164v19h-164v-19zM69 424h126v24h-126v-24z
M497 617h-200l-4 -15h200zM69 483h126v22h-126v-22zM195 615h-164v-13h164v13zM563 309h-126v-4h126v4zM774 309h-126v-4h126v4z" />
    <glyph glyph-name="FL00BDh" unicode="&#xbd;" horiz-adv-x="805" 
d="M463 8h311v45h-338v-4q0 -13 8 -23.5t19 -17.5zM436 68h338v42h-338v-42zM774 258q-2 12 -7 21h-329v-33h336v12zM436 146v-19h127v13h159q14 0 25 7.5t18 18.5h-325q-4 -8 -4 -20zM648 211v-14h-163q-14 -1 -28 -11h316q0 1 0.5 1.5t0.5 1.5v34h-336v-12h210zM136 8h200
l12 45h-200zM152 68h200l11 42h-200zM167 127h200l11 39h-200zM183 186h200l10 37h-200zM199 246h200l8 33h-200zM214 305h200l8 31h-200zM230 364h200l7 28h-200zM246 424h200l6 24h-200zM261 483h200l6 22h-200zM277 542h200l5 19h-200zM195 306v30h-126v-30h126zM69 364
h126v28h-126v-28zM31 542h164v19h-164v-19zM69 424h126v24h-126v-24zM497 617h-200l-4 -15h200zM69 483h126v22h-126v-22zM195 615h-164v-13h164v13zM723 309h-285v-4h301q-4 2 -8 2.5t-8 1.5z" />
    <glyph glyph-name="FL0009h" unicode="&#xbe;" horiz-adv-x="965" 
d="M597 127h337v39h-337v-39zM723 198v25h-126v-37h337v37h-126v-25h-85zM313 306q14 2 27 9t20 21h-329v-30h282zM31 364h336v28h-336v-28zM296 8h200l12 45h-200zM312 68h200l11 42h-200zM327 127h200l11 39h-200zM343 186h200l10 37h-200zM31 504v-21h336v22h-125v-1
h-211zM597 102h211v-34h126v42h-337v-8zM359 246h200l8 33h-200zM31 542h336v19h-336v-19zM374 305h200l8 31h-200zM808 8h126v45h-126v-45zM390 364h200l7 28h-200zM406 424h200l6 24h-200zM31 447h211v-16h-211v-7h336v24h-336v-1zM421 483h200l6 22h-200zM301 616h-270
v-14h314q-16 11 -44 14zM808 246h126v33h-126v-33zM597 246h126v33h-126v-33zM437 542h200l5 19h-200zM657 617h-200l-4 -15h200zM934 309h-126v-4h126v4zM723 309h-126v-4h126v4z" />
    <glyph glyph-name="FL00BFh" unicode="&#xbf;" horiz-adv-x="683" 
d="M99 8h553v45h-605q20 -31 52 -45zM39 68h613v42h-621v-10q0 -16 8 -32zM31 127h621v39h-621v-39zM572 279h-528q-9 -17 -12 -33h511q18 14 29 33zM593 336h-470q-34 -6 -59 -31h521q7 16 8 31zM31 186h223v37h-223v-37zM370 483h221q1 5 1.5 10.5t0.5 11.5h-225
q0 -6 0.5 -11.5t1.5 -10.5zM404 424h154q11 10 19 24h-192q4 -7 9 -13t10 -11zM579 561h-197q-5 -10 -8 -19h213q-3 9 -8 19zM482 617q-16 0 -30.5 -4t-27.5 -11h115q-13 7 -27 11t-30 4z" />
    <glyph glyph-name="FL00C0h" unicode="&#xc0;" 
d="M31 8h406v45h-406v-45zM31 68h406v42h-406v-42zM31 127h406v39h-406v-39zM31 223v-37h406v37h-406zM71 483h640v22h-625q-5 -5 -8 -11t-7 -11zM122 542h589v19h-564q-6 -5 -12.5 -9.5t-12.5 -9.5zM488 8h223v45h-223v-45zM488 68h223v42h-223v-42zM488 127h223v39h-223
v-39zM488 186h223v37h-223v-37zM31 246h223v33h-223v-33zM488 246h223v33h-223v-33zM488 305h223v31h-223v-31zM31 305h223v31h-223v-31zM233 602h478v15h-378q-26 0 -51 -4t-49 -11zM353 448h-301q-6 -12 -9 -24h255q12 8 26 14.5t29 9.5zM267 392h-232q-2 -7 -2.5 -14
t-1.5 -14h225q3 13 11 28zM488 364h223v28h-223v-28zM488 424h223v24h-223v-24zM312 721h167v10h-174q2 -3 3.5 -5.5t3.5 -4.5zM408 661h71v13h-107q8 -5 17.5 -8t18.5 -5zM284 780h140q-2 2 -2.5 3.5t-2.5 3.5h-137q1 -2 1 -4q0 -1 1 -3z" />
    <glyph glyph-name="FL00C1h" unicode="&#xc1;" 
d="M31 8h406v45h-406v-45zM31 68h406v42h-406v-42zM31 127h406v39h-406v-39zM31 223v-37h406v37h-406zM71 483h640v22h-625q-5 -5 -8 -11t-7 -11zM122 542h589v19h-564q-6 -5 -12.5 -9.5t-12.5 -9.5zM488 8h223v45h-223v-45zM488 68h223v42h-223v-42zM488 127h223v39h-223
v-39zM488 186h223v37h-223v-37zM31 246h223v33h-223v-33zM488 246h223v33h-223v-33zM488 305h223v31h-223v-31zM31 305h223v31h-223v-31zM233 602h478v15h-378q-26 0 -51 -4t-49 -11zM353 448h-301q-6 -12 -9 -24h255q12 8 26 14.5t29 9.5zM267 392h-232q-2 -7 -2.5 -14
t-1.5 -14h225q3 13 11 28zM488 364h223v28h-223v-28zM488 424h223v24h-223v-24zM491 731h-174v-10h166q2 2 4 4.5t4 5.5zM424 674h-107v-13h70q20 5 37 13zM372 780h140q0 2 0.5 3.5t0.5 3.5h-136q-1 -3 -5 -7z" />
    <glyph glyph-name="FL00C2h" unicode="&#xc2;" 
d="M31 8h406v45h-406v-45zM31 68h406v42h-406v-42zM31 127h406v39h-406v-39zM437 223h-406v-37h406v37zM71 483h640v22h-625q-5 -5 -8 -11t-7 -11zM122 542h589v19h-564q-6 -5 -12.5 -9.5t-12.5 -9.5zM488 8h223v45h-223v-45zM488 68h223v42h-223v-42zM488 127h223v39h-223
v-39zM488 186h223v37h-223v-37zM31 246h223v33h-223v-33zM488 246h223v33h-223v-33zM488 305h223v31h-223v-31zM31 305h223v31h-223v-31zM711 617h-378q-26 0 -51 -4t-49 -11h478v15zM43 424h255q12 8 26 14.5t29 9.5h-301q-6 -12 -9 -24zM31 364h225q3 13 11 28h-232
q-2 -7 -2.5 -14t-1.5 -14zM488 364h223v28h-223v-28zM488 424h223v24h-223v-24zM545 787h-305q-3 -4 -7 -7h320q-3 2 -8 7zM463 661h131v13h-131v-13zM193 661h131v13h-131v-13zM441 721h147q-2 6 -4 10h-158q4 -2 8 -4.5t7 -5.5zM199 721h146q7 5 16 10h-159q-1 -4 -3 -10z
" />
    <glyph glyph-name="FL00C3h" unicode="&#xc3;" 
d="M31 8h406v45h-406v-45zM31 68h406v42h-406v-42zM31 127h406v39h-406v-39zM437 223h-406v-37h406v37zM71 483h640v22h-625q-5 -5 -8 -11t-7 -11zM122 542h589v19h-564q-6 -5 -12.5 -9.5t-12.5 -9.5zM488 8h223v45h-223v-45zM488 68h223v42h-223v-42zM488 127h223v39h-223
v-39zM488 186h223v37h-223v-37zM488 246h223v33h-223v-33zM31 246h223v33h-223v-33zM488 305h223v31h-223v-31zM31 305h223v31h-223v-31zM711 617h-378q-26 0 -51 -4t-49 -11h478v15zM43 424h255q12 8 26 14.5t29 9.5h-301q-6 -12 -9 -24zM31 364h225q3 13 11 28h-232
q-2 -7 -2.5 -14t-1.5 -14zM488 364h223v28h-223v-28zM488 424h223v24h-223v-24zM623 731h-286q7 -5 13 -10h266q2 2 3.5 4.5t3.5 5.5zM565 674h-166q10 -8 24 -13h110q19 5 32 13zM177 780h244q-4 3 -7 7h-231q-2 -3 -6 -7zM145 661h115v13h-115v-13zM150 721h126q5 5 13 10
h-137q-1 -3 -1 -6q0 -2 -1 -4zM642 787h-121q-2 -5 -4 -7h124q0 4 1 7z" />
    <glyph glyph-name="FL00C4h" unicode="&#xc4;" 
d="M31 8h406v45h-406v-45zM31 68h406v42h-406v-42zM31 127h406v39h-406v-39zM437 223h-406v-37h406v37zM71 483h640v22h-625q-5 -5 -8 -11t-7 -11zM122 542h589v19h-564q-6 -5 -12.5 -9.5t-12.5 -9.5zM488 8h223v45h-223v-45zM488 68h223v42h-223v-42zM488 127h223v39h-223
v-39zM488 186h223v37h-223v-37zM488 246h223v33h-223v-33zM31 246h223v33h-223v-33zM488 305h223v31h-223v-31zM31 305h223v31h-223v-31zM711 617h-378q-26 0 -51 -4t-49 -11h478v15zM43 424h255q12 8 26 14.5t29 9.5h-301q-6 -12 -9 -24zM31 364h225q3 13 11 28h-232
q-2 -7 -2.5 -14t-1.5 -14zM488 364h223v28h-223v-28zM488 424h223v24h-223v-24zM197 721h176q1 2 1 4q0 3 1 6h-180q0 -4 2 -10zM415 721h175q1 2 1 4q0 3 1 6h-179q0 -4 2 -10zM250 661h67q14 5 24 13h-114q9 -8 23 -13zM469 661h67q13 4 23 13h-113q9 -8 23 -13zM366 787
h-162q-1 -2 -2 -3.5t-2 -3.5h169q-1 2 -1.5 3.5t-1.5 3.5zM583 787h-162q-1 -2 -1.5 -3.5t-1.5 -3.5h168q-2 4 -3 7z" />
    <glyph glyph-name="FL00C5h" unicode="&#xc5;" 
d="M31 8h406v45h-406v-45zM31 68h406v42h-406v-42zM31 127h406v39h-406v-39zM437 223h-406v-37h406v37zM71 483h640v22h-625q-5 -5 -8 -11t-7 -11zM122 542h589v19h-564q-6 -5 -12.5 -9.5t-12.5 -9.5zM488 8h223v45h-223v-45zM488 68h223v42h-223v-42zM488 127h223v39h-223
v-39zM488 186h223v37h-223v-37zM31 246h223v33h-223v-33zM488 246h223v33h-223v-33zM31 305h223v31h-223v-31zM488 305h223v31h-223v-31zM711 617h-378q-26 0 -51 -4t-49 -11h478v15zM43 424h255q12 8 26 14.5t29 9.5h-301q-6 -12 -9 -24zM31 364h225q3 13 11 28h-232
q-2 -7 -2.5 -14t-1.5 -14zM488 364h223v28h-223v-28zM488 424h223v24h-223v-24zM367 661h67q14 5 24 13h-114q9 -8 23 -13zM483 787h-162q-1 -2 -2 -3.5t-2 -3.5h169q-1 2 -1.5 3.5t-1.5 3.5zM492 731h-66q-5 -8 -16 -10h80q1 2 1 4q0 3 1 6zM314 721h77q-9 2 -16 10h-63
q0 -4 2 -10z" />
    <glyph glyph-name="FL00C6h" unicode="&#xc6;" horiz-adv-x="1079" 
d="M737 8h311v45h-562l1 -45h223v6q12 -3 27 -6zM486 68h562v42h-562v-42zM486 127h562v39h-562v-39zM71 483h977v22h-962q-5 -5 -8 -11t-7 -11zM1048 223h-562v-37h562v37zM31 8h406v45h-406v-45zM486 305h561v31h-561v-31zM122 542h926v19h-901q-6 -5 -12.5 -9.5
t-12.5 -9.5zM31 68h406v42h-406v-42zM31 127h406v39h-406v-39zM486 392v-28h561v28h-561zM437 223h-406v-37h406v37zM233 602h815v15h-715q-26 0 -51 -4t-49 -11zM725 279h-239v-33h272q-10 7 -18.5 15t-14.5 18zM31 246h223v33h-223v-33zM31 305h223v31h-223v-31zM353 448
h-301q-6 -12 -9 -24h255q12 8 26 14.5t29 9.5zM267 392h-232q-2 -7 -2.5 -14t-1.5 -14h225q3 13 11 28zM486 424h225v24h-225v-24z" />
    <glyph glyph-name="FL00E7h" unicode="&#xc7;" horiz-adv-x="624" 
d="M75 127h518v39h-540q10 -23 22 -39zM45 186h548v37h-558q2 -10 4.5 -19t5.5 -18zM130 68h463v42h-506q20 -25 43 -42zM258 8h335v45h-442q23 -16 50.5 -27.5t56.5 -17.5zM31 483h562v22h-562v-22zM206 -110h242v50h-242v-50zM31 542h562v19h-562v-19zM448 -153v37h-242
v-37h242zM593 617h-562v-15h562v15zM32 246h272q-21 15 -34 33h-239v-7v-14q0 -6 1 -12zM256 320v16h-225v-31h227q-2 10 -2 15zM206 -41v-10h242v48h-112v-38h-130zM31 364h225v28h-225v-28zM31 424h225v24h-225v-24z" />
    <glyph glyph-name="FL00C8h" unicode="&#xc8;" horiz-adv-x="624" 
d="M75 127h518v39h-540q10 -23 22 -39zM45 186h548v37h-558q2 -10 4.5 -19t5.5 -18zM130 68h463v42h-506q20 -25 43 -42zM258 8h335v45h-442q23 -16 50.5 -27.5t56.5 -17.5zM31 305h561v31h-561v-31zM592 392h-561v-28h561v28zM31 483h562v22h-562v-22zM31 542h562v19h-562
v-19zM593 617h-562v-15h562v15zM32 246h271q-10 7 -18.5 15t-14.5 18h-239v-7v-14q0 -6 1 -12zM31 424h225v24h-225v-24zM246 721h167v10h-174q2 -3 3.5 -5.5t3.5 -4.5zM342 661h71v13h-107q8 -5 17.5 -8t18.5 -5zM353 787h-137q1 -2 1 -4q0 -1 1 -3h140q-2 2 -2.5 3.5
t-2.5 3.5z" />
    <glyph glyph-name="FL00C9h" unicode="&#xc9;" horiz-adv-x="623" 
d="M75 127h518v39h-540q10 -23 22 -39zM45 186h548v37h-558q2 -10 4.5 -19t5.5 -18zM130 68h463v42h-506q20 -25 43 -42zM258 8h335v45h-442q23 -16 50.5 -27.5t56.5 -17.5zM31 305h561v31h-561v-31zM592 392h-561v-28h561v28zM31 483h562v22h-562v-22zM31 542h562v19h-562
v-19zM593 617h-562v-15h562v15zM32 246h271q-10 7 -18.5 15t-14.5 18h-239v-7v-14q0 -6 1 -12zM31 424h225v24h-225v-24zM420 731h-174v-10h166q2 2 4 4.5t4 5.5zM353 674h-107v-13h70q20 5 37 13zM442 787h-136q-1 -3 -5 -7h140q0 2 0.5 3.5t0.5 3.5z" />
    <glyph glyph-name="FL00CAh" unicode="&#xca;" horiz-adv-x="623" 
d="M75 127h518v39h-540q10 -23 22 -39zM45 186h548v37h-558q2 -10 4.5 -19t5.5 -18zM130 68h463v42h-506q20 -25 43 -42zM258 8h335v45h-442q23 -16 50.5 -27.5t56.5 -17.5zM31 305h561v31h-561v-31zM592 392h-561v-28h561v28zM31 483h562v22h-562v-22zM31 542h562v19h-562
v-19zM593 617h-562v-15h562v15zM32 246h271q-10 7 -18.5 15t-14.5 18h-239v-7v-14q0 -6 1 -12zM31 424h225v24h-225v-24zM471 787h-305q-3 -4 -7 -7h320q-3 2 -8 7zM119 661h131v13h-131v-13zM389 661h131v13h-131v-13zM367 721h147q-2 6 -4 10h-158q4 -2 8 -4.5t7 -5.5z
M125 721h146q7 5 16 10h-159q-1 -4 -3 -10z" />
    <glyph glyph-name="FL00CBh" unicode="&#xcb;" horiz-adv-x="623" 
d="M75 127h518v39h-540q10 -23 22 -39zM45 186h548v37h-558q2 -10 4.5 -19t5.5 -18zM130 68h463v42h-506q20 -25 43 -42zM258 8h335v45h-442q23 -16 50.5 -27.5t56.5 -17.5zM31 305h561v31h-561v-31zM592 392h-561v-28h561v28zM31 483h562v22h-562v-22zM31 542h562v19h-562
v-19zM593 617h-562v-15h562v15zM32 246h270q-20 14 -32 33h-239v-7v-14q0 -6 1 -12zM31 424h225v24h-225v-24zM121 721h176q1 2 1 4q0 3 1 6h-180q0 -4 2 -10zM339 721h175q1 2 1 4q0 3 1 6h-179q0 -4 2 -10zM174 661h67q14 5 24 13h-114q9 -8 23 -13zM393 661h67
q13 4 23 13h-113q9 -8 23 -13zM290 787h-162q-1 -2 -2 -3.5t-2 -3.5h169q-1 2 -1.5 3.5t-1.5 3.5zM507 787h-162q-1 -2 -1.5 -3.5t-1.5 -3.5h168q-2 4 -3 7z" />
    <glyph glyph-name="FL00CCh" unicode="&#xcc;" horiz-adv-x="623" 
d="M31 8h561v45h-561v-45zM31 68h561v42h-561v-42zM31 127h561v39h-561v-39zM592 223h-561v-37h561v37zM31 483h561v22h-561v-22zM31 542h561v19h-561v-19zM31 602h561v15h-561v-15zM198 246h224v33h-224v-33zM198 305h224v31h-224v-31zM198 364h224v28h-224v-28zM198 424
h224v24h-224v-24zM240 721h167v10h-174q2 -3 3.5 -5.5t3.5 -4.5zM336 661h71v13h-107q8 -5 17.5 -8t18.5 -5zM212 780h140q-4 4 -6 7h-136q1 -2 1 -4q0 -1 1 -3z" />
    <glyph glyph-name="FL00CDh" unicode="&#xcd;" horiz-adv-x="623" 
d="M30 8h561v45h-561v-45zM30 68h561v42h-561v-42zM30 127h561v39h-561v-39zM30 223v-37h561v37h-561zM30 483h561v22h-561v-22zM30 542h561v19h-561v-19zM30 602h561v15h-561v-15zM200 246h224v33h-224v-33zM200 305h224v31h-224v-31zM200 364h224v28h-224v-28zM200 424
h224v24h-224v-24zM389 731h-174v-10h166q2 2 4 4.5t4 5.5zM322 674h-107v-13h70q20 5 37 13zM270 780h140q0 2 0.5 3.5t0.5 3.5h-136q-1 -3 -5 -7z" />
    <glyph glyph-name="FL00CEh" unicode="&#xce;" horiz-adv-x="623" 
d="M31 8h561v45h-561v-45zM31 68h561v42h-561v-42zM31 127h561v39h-561v-39zM31 223v-37h561v37h-561zM31 483h561v22h-561v-22zM31 542h561v19h-561v-19zM31 602h561v15h-561v-15zM198 246h224v33h-224v-33zM198 305h224v31h-224v-31zM198 364h224v28h-224v-28zM198 424
h224v24h-224v-24zM464 787h-305q-3 -4 -7 -7h320q-3 2 -8 7zM382 661h131v13h-131v-13zM112 661h131v13h-131v-13zM503 731h-158q4 -2 8 -4.5t7 -5.5h147q-2 6 -4 10zM280 731h-159q-1 -4 -3 -10h146q7 5 16 10z" />
    <glyph glyph-name="FL00CFh" unicode="&#xcf;" horiz-adv-x="623" 
d="M31 8h561v45h-561v-45zM31 68h561v42h-561v-42zM31 127h561v39h-561v-39zM31 186h561v37h-561v-37zM31 483h561v22h-561v-22zM31 542h561v19h-561v-19zM592 617h-561v-15h561v15zM198 246h224v33h-224v-33zM198 305h224v31h-224v-31zM198 364h224v28h-224v-28zM198 424
h224v24h-224v-24zM114 721h176q1 2 1 4q0 3 1 6h-180q0 -4 2 -10zM332 721h175q1 2 1 4q0 3 1 6h-179q0 -4 2 -10zM167 661h67q14 5 24 13h-114q9 -8 23 -13zM386 661h67q13 4 23 13h-113q9 -8 23 -13zM283 787h-162q-1 -2 -2 -3.5t-2 -3.5h169q-1 2 -1.5 3.5t-1.5 3.5z
M500 787h-162q-1 -2 -1.5 -3.5t-1.5 -3.5h168q-2 4 -3 7z" />
    <glyph glyph-name="FL00D0h" unicode="&#xd0;" horiz-adv-x="848" 
d="M143 483h674v22h-674v-22zM812 223h-395v-37h385q3 9 5.5 18t4.5 19zM795 166h-378v-39h356q6 9 11.5 18.5t10.5 20.5zM31 305h453v31h-453v-31zM760 110h-343v-42h301q11 9 22 19.5t20 22.5zM143 542h674v19h-674v-19zM31 364h453v28h-453v-28zM697 53h-280v-45h173
q29 6 56 17.5t51 27.5zM143 602h674v15h-674v-15zM143 8h223v45h-223v-45zM143 68h223v42h-223v-42zM143 127h223v39h-223v-39zM817 272v7h-240q-14 -20 -33 -33h271q1 6 1.5 12.5t0.5 13.5zM143 186h223v37h-223v-37zM143 246h223v33h-223v-33zM589 305h228v31h-225v-16z
M592 364h225v28h-225v-28zM592 424h225v24h-225v-24zM143 424h223v24h-223v-24z" />
    <glyph glyph-name="FL00D1h" unicode="&#xd1;" horiz-adv-x="742" 
d="M657 505h-626v-22h641q-4 5 -7.5 11t-7.5 11zM596 561h-565v-19h590q-6 5 -12.5 9.5t-12.5 9.5zM31 8h223v45h-223v-45zM488 8h223v45h-223v-45zM31 68h223v42h-223v-42zM488 68h223v42h-223v-42zM488 127h223v39h-223v-39zM31 127h223v39h-223v-39zM488 186h223v37h-223
v-37zM31 186h223v37h-223v-37zM488 246h223v33h-223v-33zM31 246h223v33h-223v-33zM488 305h223v31h-223v-31zM31 305h223v31h-223v-31zM409 617h-378v-15h479q-24 7 -49.5 11t-51.5 4zM443 424h256l-4 12t-5 12h-301q28 -6 54 -24zM486 364h224q0 7 -1 14l-2 14h-233
q5 -7 7.5 -13.5t4.5 -14.5zM31 364h223v28h-223v-28zM31 424h223v24h-223v-24zM571 731h-286q7 -5 13 -10h266q2 2 3.5 4.5t3.5 5.5zM513 674h-166q10 -8 24 -13h110q19 5 32 13zM125 780h244q-4 3 -7 7h-231q-2 -3 -6 -7zM93 661h115v13h-115v-13zM98 721h126q5 5 13 10
h-137q-1 -3 -1 -6q0 -2 -1 -4zM590 787h-121q-2 -5 -4 -7h124q0 4 1 7z" />
    <glyph glyph-name="FL00D2h" unicode="&#xd2;" horiz-adv-x="742" 
d="M31 8h680v45h-680v-45zM31 68h680v42h-680v-42zM31 127h680v39h-680v-39zM31 223v-37h680v37h-680zM656 505h-571q-5 -5 -8.5 -11t-6.5 -11h601q-4 5 -7.5 11t-7.5 11zM594 561h-448q-7 -5 -13 -9.5t-12 -9.5h498q-6 5 -12 9.5t-13 9.5zM31 246h223v33h-223v-33zM488 246
h223v33h-223v-33zM31 305h223v31h-223v-31zM488 305h223v31h-223v-31zM43 424h255q12 8 26 14.5t29 9.5h-302l-4 -12zM690 448h-301q28 -6 54 -24h256zM707 392h-233q5 -7 7.5 -13.5t4.5 -14.5h224q0 7 -1 14zM31 364h225q3 13 11 28h-232q-2 -7 -2.5 -14t-1.5 -14zM409 617
h-76q-26 0 -51.5 -4t-49.5 -11h276q-23 7 -48 11t-51 4zM289 721h167v10h-174q2 -3 3.5 -5.5t3.5 -4.5zM385 661h71v13h-107q8 -5 17.5 -8t18.5 -5zM396 787h-137q1 -2 1 -4q0 -1 1 -3h140q-2 2 -2.5 3.5t-2.5 3.5z" />
    <glyph glyph-name="FL00D3h" unicode="&#xd3;" horiz-adv-x="742" 
d="M31 8h680v45h-680v-45zM31 68h680v42h-680v-42zM31 127h680v39h-680v-39zM31 223v-37h680v37h-680zM656 505h-571q-5 -5 -8.5 -11t-6.5 -11h601q-4 5 -7.5 11t-7.5 11zM594 561h-448q-7 -5 -13 -9.5t-12 -9.5h498q-6 5 -12 9.5t-13 9.5zM31 246h223v33h-223v-33zM488 246
h223v33h-223v-33zM31 305h223v31h-223v-31zM488 305h223v31h-223v-31zM43 424h255q12 8 26 14.5t29 9.5h-302l-4 -12zM690 448h-301q28 -6 54 -24h256zM707 392h-233q5 -7 7.5 -13.5t4.5 -14.5h224q0 7 -1 14zM31 364h225q3 13 11 28h-232q-2 -7 -2.5 -14t-1.5 -14zM409 617
h-76q-26 0 -51.5 -4t-49.5 -11h276q-23 7 -48 11t-51 4zM459 731h-174v-10h166q2 2 4 4.5t4 5.5zM392 674h-107v-13h70q20 5 37 13zM481 787h-136q-1 -3 -5 -7h140q0 2 0.5 3.5t0.5 3.5z" />
    <glyph glyph-name="FL00D4h" unicode="&#xd4;" horiz-adv-x="742" 
d="M31 8h680v45h-680v-45zM31 68h680v42h-680v-42zM31 127h680v39h-680v-39zM31 223v-37h680v37h-680zM656 505h-571q-5 -5 -8.5 -11t-6.5 -11h601q-4 5 -7.5 11t-7.5 11zM594 561h-448q-7 -5 -13 -9.5t-12 -9.5h498q-6 5 -12 9.5t-13 9.5zM31 246h223v33h-223v-33zM488 246
h223v33h-223v-33zM31 305h223v31h-223v-31zM488 305h223v31h-223v-31zM43 424h255q12 8 26 14.5t29 9.5h-302l-4 -12zM690 448h-301q28 -6 54 -24h256zM707 392h-233q5 -7 7.5 -13.5t4.5 -14.5h224q0 7 -1 14zM31 364h225q3 13 11 28h-232q-2 -7 -2.5 -14t-1.5 -14zM409 617
h-76q-26 0 -51.5 -4t-49.5 -11h276q-23 7 -48 11t-51 4zM522 787h-305q-3 -4 -7 -7h320q-3 2 -8 7zM170 661h131v13h-131v-13zM440 661h131v13h-131v-13zM418 721h147q-2 6 -4 10h-158q4 -2 8 -4.5t7 -5.5zM176 721h146q7 5 16 10h-159q-1 -4 -3 -10z" />
    <glyph glyph-name="FL00D5h" unicode="&#xd5;" horiz-adv-x="742" 
d="M31 8h680v45h-680v-45zM31 68h680v42h-680v-42zM31 127h680v39h-680v-39zM31 223v-37h680v37h-680zM656 505h-571q-5 -5 -8.5 -11t-6.5 -11h601q-4 5 -7.5 11t-7.5 11zM594 561h-448q-7 -5 -13 -9.5t-12 -9.5h498q-6 5 -12 9.5t-13 9.5zM31 246h223v33h-223v-33zM488 246
h223v33h-223v-33zM31 305h223v31h-223v-31zM488 305h223v31h-223v-31zM43 424h255q12 8 26 14.5t29 9.5h-302l-4 -12zM690 448h-301q28 -6 54 -24h256zM707 392h-233q5 -7 7.5 -13.5t4.5 -14.5h224q0 7 -1 14zM31 364h225q3 13 11 28h-232q-2 -7 -2.5 -14t-1.5 -14zM409 617
h-76q-26 0 -51.5 -4t-49.5 -11h276q-23 7 -48 11t-51 4zM601 731h-286q7 -5 13 -10h266q2 2 3.5 4.5t3.5 5.5zM543 674h-166q10 -8 24 -13h110q19 5 32 13zM155 780h244q-4 3 -7 7h-231q-2 -3 -6 -7zM123 661h115v13h-115v-13zM128 721h126q5 5 13 10h-137q-1 -3 -1 -6
q0 -2 -1 -4zM620 787h-121q-2 -5 -4 -7h124q0 4 1 7z" />
    <glyph glyph-name="FL00D6h" unicode="&#xd6;" horiz-adv-x="742" 
d="M31 8h680v45h-680v-45zM31 68h680v42h-680v-42zM31 127h680v39h-680v-39zM31 223v-37h680v37h-680zM656 505h-571q-5 -5 -8.5 -11t-6.5 -11h601q-4 5 -7.5 11t-7.5 11zM594 561h-448q-7 -5 -13 -9.5t-12 -9.5h498q-6 5 -12 9.5t-13 9.5zM31 246h223v33h-223v-33zM488 246
h223v33h-223v-33zM31 305h223v31h-223v-31zM488 305h223v31h-223v-31zM43 424h255q12 8 26 14.5t29 9.5h-302l-4 -12zM690 448h-301q28 -6 54 -24h256zM707 392h-233q5 -7 7.5 -13.5t4.5 -14.5h224q0 7 -1 14zM31 364h225q3 13 11 28h-232q-2 -7 -2.5 -14t-1.5 -14zM409 617
h-76q-26 0 -51.5 -4t-49.5 -11h276q-23 7 -48 11t-51 4zM174 721h176q1 2 1 4q0 3 1 6h-180q0 -4 2 -10zM392 721h175q1 2 1 4q0 3 1 6h-179q0 -4 2 -10zM227 661h67q14 5 24 13h-114q9 -8 23 -13zM446 661h67q13 4 23 13h-113q9 -8 23 -13zM343 787h-162q-1 -2 -2 -3.5
t-2 -3.5h169q-1 2 -1.5 3.5t-1.5 3.5zM560 787h-162q-1 -2 -1.5 -3.5t-1.5 -3.5h168q-2 4 -3 7z" />
    <glyph glyph-name="FL00D7h" unicode="&#xd7;" horiz-adv-x="381" 
d="M31 256l10 -10h139l11 11l11 -11h138l10 10l-23 23h-273zM85 364h211l29 28h-268zM80 305h221l-31 31h-159zM200 424h143l-25 24h-94zM39 424h143l-24 24h-95zM100 186h20l37 37h-94zM262 186h19l36 37h-92zM259 483h24l-12 12zM99 483h24l-12 12z" />
    <glyph glyph-name="FL00D8h" unicode="&#xd8;" horiz-adv-x="769" 
d="M733 223h-365h-1h-332q2 -10 4.5 -19t5.5 -18h678q3 9 5.5 18t4.5 19zM716 166h-664q5 -11 10.5 -20.5t11.5 -18.5h620q6 9 11.5 18.5t10.5 20.5zM681 110h-595q19 -24 42 -42h511q11 9 22 19.5t20 22.5zM618 53h-469q23 -16 50.5 -27.5t56.5 -17.5h255q29 6 56 17.5
t51 27.5zM31 305h424l45 31h-230l-16 -11v11h-223v-31zM682 505h-597q-5 -5 -8.5 -11t-6.5 -11h628q-4 5 -7.5 11t-8.5 11zM32 246h336l49 33h-386v-7v-14q0 -6 1 -12zM734 392h-383l-41 -28h427q-1 7 -1.5 14t-1.5 14zM618 561h-472q-7 -5 -13 -9.5t-12 -9.5h524
q-7 5 -13.5 9.5t-13.5 9.5zM738 272v7h-238q-13 -18 -34 -33h270q1 6 1.5 12.5t0.5 13.5zM428 445l-31 -21h329l-4 12t-5 12h-301zM512 305h226v31h-223v-16zM43 424h255q12 8 26 14.5t29 9.5h-302l-4 -12zM31 364h225q3 13 11 28h-232q-2 -7 -2.5 -14t-1.5 -14zM436 617
h-103q-26 0 -51.5 -4t-49.5 -11h295q-43 12 -91 15z" />
    <glyph glyph-name="FL00D9h" unicode="&#xd9;" horiz-adv-x="742" 
d="M45 186h651q3 9 5.5 18t4.5 19h-671q2 -10 4.5 -19t5.5 -18zM76 127h591q6 9 11.5 18.5t10.5 20.5h-636q5 -11 10.5 -20.5t12.5 -18.5zM134 68h478q11 9 22 19.5t20 22.5h-565q19 -24 45 -42zM271 8h213q29 6 56 17.5t51 27.5h-435q51 -33 115 -45zM439 246h270
q1 6 1.5 12.5t0.5 13.5v7h-238q-13 -18 -34 -33zM32 246h270q-10 7 -18.5 15t-14.5 18h-238v-7v-14q0 -6 1 -12zM254 320v16h-223v-31h226q-3 7 -3 15zM485 305h226v31h-223v-16zM31 364h223v28h-223v-28zM488 364h223v28h-223v-28zM31 424h223v24h-223v-24zM488 424h223v24
h-223v-24zM31 483h223v22h-223v-22zM488 483h223v22h-223v-22zM31 542h223v19h-223v-19zM488 542h223v19h-223v-19zM31 602h223v15h-223v-15zM488 602h223v15h-223v-15zM289 721h167v10h-174q2 -3 3.5 -5.5t3.5 -4.5zM385 661h71v13h-107q8 -5 17.5 -8t18.5 -5zM261 780h140
q-2 2 -2.5 3.5t-2.5 3.5h-137q1 -2 1 -4q0 -1 1 -3z" />
    <glyph glyph-name="FL00DAh" unicode="&#xda;" horiz-adv-x="742" 
d="M45 186h651q3 9 5.5 18t4.5 19h-671q2 -10 4.5 -19t5.5 -18zM76 127h591q6 9 11.5 18.5t10.5 20.5h-636q5 -11 10.5 -20.5t12.5 -18.5zM134 68h478q11 9 22 19.5t20 22.5h-565q19 -24 45 -42zM271 8h213q29 6 56 17.5t51 27.5h-435q51 -33 115 -45zM439 246h270
q1 6 1.5 12.5t0.5 13.5v7h-238q-13 -18 -34 -33zM32 246h270q-10 7 -18.5 15t-14.5 18h-238v-7v-14q0 -6 1 -12zM254 320v16h-223v-31h226q-3 7 -3 15zM485 305h226v31h-223v-16zM31 364h223v28h-223v-28zM488 364h223v28h-223v-28zM31 424h223v24h-223v-24zM488 424h223v24
h-223v-24zM31 483h223v22h-223v-22zM488 483h223v22h-223v-22zM31 542h223v19h-223v-19zM488 542h223v19h-223v-19zM31 602h223v15h-223v-15zM488 602h223v15h-223v-15zM459 731h-174v-10h166q2 2 4 4.5t4 5.5zM392 674h-107v-13h70q20 5 37 13zM340 780h140q0 2 0.5 3.5
t0.5 3.5h-136q-1 -3 -5 -7z" />
    <glyph glyph-name="FL00DBh" unicode="&#xdb;" horiz-adv-x="742" 
d="M45 186h651q3 9 5.5 18t4.5 19h-671q2 -10 4.5 -19t5.5 -18zM76 127h591q6 9 11.5 18.5t10.5 20.5h-636q5 -11 10.5 -20.5t12.5 -18.5zM134 68h478q11 9 22 19.5t20 22.5h-565q19 -24 45 -42zM271 8h213q29 6 56 17.5t51 27.5h-435q51 -33 115 -45zM439 246h270
q1 6 1.5 12.5t0.5 13.5v7h-238q-13 -18 -34 -33zM32 246h270q-10 7 -18.5 15t-14.5 18h-238v-7v-14q0 -6 1 -12zM254 320v16h-223v-31h226q-3 7 -3 15zM485 305h226v31h-223v-16zM31 364h223v28h-223v-28zM488 364h223v28h-223v-28zM488 424h223v24h-223v-24zM31 424h223v24
h-223v-24zM31 483h223v22h-223v-22zM488 483h223v22h-223v-22zM488 542h223v19h-223v-19zM31 542h223v19h-223v-19zM31 602h223v15h-223v-15zM488 602h223v15h-223v-15zM522 787h-305q-3 -4 -7 -7h320q-3 2 -8 7zM440 661h131v13h-131v-13zM170 661h131v13h-131v-13z
M561 731h-158q4 -2 8 -4.5t7 -5.5h147q-2 6 -4 10zM338 731h-159q-1 -4 -3 -10h146q7 5 16 10z" />
    <glyph glyph-name="FL00DCh" unicode="&#xdc;" horiz-adv-x="742" 
d="M45 186h651q3 9 5.5 18t4.5 19h-671q2 -10 4.5 -19t5.5 -18zM76 127h591q6 9 11.5 18.5t10.5 20.5h-636q5 -11 10.5 -20.5t12.5 -18.5zM134 68h478q11 9 22 19.5t20 22.5h-565q19 -24 45 -42zM271 8h213q29 6 56 17.5t51 27.5h-435q51 -33 115 -45zM439 246h270
q1 6 1.5 12.5t0.5 13.5v7h-238q-13 -18 -34 -33zM32 246h270q-10 7 -18.5 15t-14.5 18h-238v-7v-14q0 -6 1 -12zM254 320v16h-223v-31h226q-3 7 -3 15zM485 305h226v31h-223v-16zM488 364h223v28h-223v-28zM31 364h223v28h-223v-28zM31 424h223v24h-223v-24zM488 424h223v24
h-223v-24zM31 483h223v22h-223v-22zM488 483h223v22h-223v-22zM488 542h223v19h-223v-19zM31 542h223v19h-223v-19zM488 602h223v15h-223v-15zM31 602h223v15h-223v-15zM352 731h-180q0 -4 2 -10h176q1 2 1 4q0 3 1 6zM569 731h-179q0 -4 2 -10h175q1 2 1 4q0 3 1 6z
M318 674h-114q9 -8 23 -13h67q14 5 24 13zM536 674h-113q9 -8 23 -13h67q13 4 23 13zM177 780h169q-1 2 -1.5 3.5t-1.5 3.5h-162q-1 -2 -2 -3.5t-2 -3.5zM395 780h168q-2 4 -3 7h-162q-1 -2 -1.5 -3.5t-1.5 -3.5z" />
    <glyph glyph-name="FL00DDh" unicode="&#xdd;" horiz-adv-x="678" 
d="M624 166h-523v-39h501q6 9 11.5 18.5t10.5 20.5zM642 223h-541v-37h531q3 9 5.5 18t4.5 19zM589 110h-488v-42h445q26 20 43 42zM115 305h532v31h-572q18 -19 40 -31zM525 53h-424v-45h318q29 6 55.5 17.5t50.5 27.5zM55 364h592v28h-604q5 -17 12 -28zM647 272v7h-239
q-14 -20 -33 -33h270q1 6 1.5 12.5t0.5 13.5zM35 424h241q-8 10 -12 24h-233q2 -14 4 -24zM422 424h225v24h-225v-24zM256 490v15h-225v-22h226q-1 2 -1 7zM422 483h225v22h-225v-22zM422 542h225v19h-225v-19zM31 542h225v19h-225v-19zM31 602h225v15h-225v-15zM422 602
h225v15h-225v-15zM429 731h-174v-10h166q2 2 4 4.5t4 5.5zM362 674h-107v-13h70q20 5 37 13zM310 780h140q0 2 0.5 3.5t0.5 3.5h-136q-1 -3 -5 -7z" />
    <glyph glyph-name="FL00DEh" unicode="&#xde;" 
d="M31 364h673v28h-673v-28zM696 448h-665v-24h672q-2 6 -3.5 12t-3.5 12zM640 505h-609v-22h641q-12 12 -32 22zM682 223h-377v-37h331q27 12 46 37zM704 277v2h-399v-33h390q8 15 9 31zM31 8h224v45h-224v-45zM31 68h224v42h-224v-42zM31 127h224v39h-224v-39zM31 186h224
v37h-224v-37zM31 246h224v33h-224v-33zM31 305h224v31h-224v-31zM481 305h223v31h-223v-31zM31 542h224v19h-224v-19zM31 602h224v15h-224v-15z" />
    <glyph glyph-name="FL00DFh" unicode="&#xdf;" horiz-adv-x="734" 
d="M703 100v10h-383v-42h374q7 15 9 32zM687 53h-367v-45h316q32 14 51 45zM320 127h383v39h-383v-39zM31 483h672v22h-672v-22zM320 186h383v37h-224v-1h-159v-36zM36 542h662q-3 9 -8 19h-646q-5 -10 -8 -19zM674 336h-354v-31h372q-4 8 -8.5 15.5t-7.5 13.5zM31 -110h223
v50h-223v-50zM31 -51h223v48h-223v-48zM703 387v5h-383v-28h372q8 13 11 23zM31 8h223v45h-223v-45zM31 68h223v42h-223v-42zM31 127h223v39h-223v-39zM31 186h223v37h-223v-37zM86 602h564q-21 12 -47 15h-473q-25 -3 -44 -15zM31 -151h223v35h-223v-35zM479 246h224v33
h-224v-33zM31 246h223v33h-223v-33zM31 305h223v31h-223v-31zM31 364h223v28h-223v-28zM479 424h224v24h-224v-24zM31 424h223v24h-223v-24z" />
    <glyph glyph-name="FL00E0h" unicode="&#xe0;" 
d="M31 483h673v22h-673v-22zM36 542h663q-4 12 -8 19h-647q-5 -10 -8 -19zM306 305h398v31h-398v-31zM306 364h398v28h-398v-28zM31 8h223v45h-223v-45zM481 8h223v45h-223v-45zM31 68h223v42h-223v-42zM481 68h223v42h-223v-42zM31 127h223v39h-223v-39zM481 127h223v39
h-223v-39zM31 186h223v37h-223v-37zM481 186h223v37h-223v-37zM86 602h566q-23 12 -48 15h-474q-25 -3 -44 -15zM31 246h223v33h-223v-33zM481 246h223v33h-223v-33zM31 305h223v31h-223v-31zM31 364h223v28h-223v-28zM481 424h223v24h-223v-24zM31 424h223v24h-223v-24z
M286 721h167v10h-174q2 -3 3.5 -5.5t3.5 -4.5zM382 661h71v13h-107q8 -5 17.5 -8t18.5 -5zM258 780h140q-2 2 -2.5 3.5t-2.5 3.5h-137q1 -2 1 -4q0 -1 1 -3z" />
    <glyph glyph-name="FL00E1h" unicode="&#xe1;" 
d="M31 483h673v22h-673v-22zM36 542h663q-4 12 -8 19h-647q-5 -10 -8 -19zM306 305h398v31h-398v-31zM306 364h398v28h-398v-28zM31 8h223v45h-223v-45zM481 8h223v45h-223v-45zM31 68h223v42h-223v-42zM481 68h223v42h-223v-42zM31 127h223v39h-223v-39zM481 127h223v39
h-223v-39zM31 186h223v37h-223v-37zM481 186h223v37h-223v-37zM86 602h566q-23 12 -48 15h-474q-25 -3 -44 -15zM31 246h223v33h-223v-33zM481 246h223v33h-223v-33zM31 305h223v31h-223v-31zM31 364h223v28h-223v-28zM31 424h223v24h-223v-24zM481 424h223v24h-223v-24z
M456 731h-174v-10h166q2 2 4 4.5t4 5.5zM389 674h-107v-13h70q20 5 37 13zM337 780h140q0 2 0.5 3.5t0.5 3.5h-136q-1 -3 -5 -7z" />
    <glyph glyph-name="FL00E2h" unicode="&#xe2;" 
d="M31 483h673v22h-673v-22zM36 542h663q-4 12 -8 19h-647q-5 -10 -8 -19zM306 305h398v31h-398v-31zM306 364h398v28h-398v-28zM31 8h223v45h-223v-45zM481 8h223v45h-223v-45zM31 68h223v42h-223v-42zM481 68h223v42h-223v-42zM31 127h223v39h-223v-39zM481 127h223v39
h-223v-39zM31 186h223v37h-223v-37zM481 186h223v37h-223v-37zM86 602h566q-23 12 -48 15h-474q-25 -3 -44 -15zM481 246h223v33h-223v-33zM31 246h223v33h-223v-33zM31 305h223v31h-223v-31zM31 364h223v28h-223v-28zM481 424h223v24h-223v-24zM31 424h223v24h-223v-24z
M519 787h-305q-3 -4 -7 -7h320q-3 2 -8 7zM167 661h131v13h-131v-13zM437 661h131v13h-131v-13zM558 731h-158q4 -2 8 -4.5t7 -5.5h147q-2 6 -4 10zM335 731h-159q-1 -4 -3 -10h146q7 5 16 10z" />
    <glyph glyph-name="FL00E3h" unicode="&#xe3;" 
d="M31 483h673v22h-673v-22zM36 542h663q-4 12 -8 19h-647q-5 -10 -8 -19zM306 305h398v31h-398v-31zM306 364h398v28h-398v-28zM31 8h223v45h-223v-45zM481 8h223v45h-223v-45zM31 68h223v42h-223v-42zM481 68h223v42h-223v-42zM481 127h223v39h-223v-39zM31 127h223v39
h-223v-39zM481 186h223v37h-223v-37zM31 186h223v37h-223v-37zM86 602h566q-23 12 -48 15h-474q-25 -3 -44 -15zM481 246h223v33h-223v-33zM31 246h223v33h-223v-33zM31 305h223v31h-223v-31zM31 364h223v28h-223v-28zM31 424h223v24h-223v-24zM481 424h223v24h-223v-24z
M326 721h266q2 2 3.5 4.5t3.5 5.5h-286q7 -5 13 -10zM399 661h110q19 5 32 13h-166q10 -8 24 -13zM153 780h244q-4 3 -7 7h-231q-2 -3 -6 -7zM121 661h115v13h-115v-13zM265 731h-137q-1 -3 -1 -6q0 -2 -1 -4h126q5 5 13 10zM493 780h124q0 4 1 7h-121q-2 -5 -4 -7z" />
    <glyph glyph-name="FL00E4h" unicode="&#xe4;" 
d="M31 483h673v22h-673v-22zM36 542h663q-4 12 -8 19h-647q-5 -10 -8 -19zM306 305h398v31h-398v-31zM306 364h398v28h-398v-28zM31 8h223v45h-223v-45zM481 8h223v45h-223v-45zM31 68h223v42h-223v-42zM481 68h223v42h-223v-42zM31 127h223v39h-223v-39zM481 127h223v39
h-223v-39zM481 186h223v37h-223v-37zM31 186h223v37h-223v-37zM86 602h566q-23 12 -48 15h-474q-25 -3 -44 -15zM481 246h223v33h-223v-33zM31 246h223v33h-223v-33zM31 305h223v31h-223v-31zM31 364h223v28h-223v-28zM481 424h223v24h-223v-24zM31 424h223v24h-223v-24z
M349 731h-180q0 -4 2 -10h176q1 2 1 4q0 3 1 6zM566 731h-179q0 -4 2 -10h175q1 2 1 4q0 3 1 6zM315 674h-114q9 -8 23 -13h67q14 5 24 13zM533 674h-113q9 -8 23 -13h67q13 4 23 13zM174 780h169q-1 2 -1.5 3.5t-1.5 3.5h-162q-1 -2 -2 -3.5t-2 -3.5zM392 780h168
q-2 4 -3 7h-162q-1 -2 -1.5 -3.5t-1.5 -3.5z" />
    <glyph glyph-name="FL00E5h" unicode="&#xe5;" 
d="M31 483h673v22h-673v-22zM691 561h-647q-5 -10 -8 -19h663q-4 12 -8 19zM306 305h398v31h-398v-31zM306 392v-28h398v28h-398zM31 8h223v45h-223v-45zM481 8h223v45h-223v-45zM31 68h223v42h-223v-42zM481 68h223v42h-223v-42zM31 127h223v39h-223v-39zM481 127h223v39
h-223v-39zM31 186h223v37h-223v-37zM481 186h223v37h-223v-37zM604 617h-474q-25 -3 -44 -15h566q-23 12 -48 15zM481 246h223v33h-223v-33zM31 246h223v33h-223v-33zM31 305h223v31h-223v-31zM31 364h223v28h-223v-28zM481 424h223v24h-223v-24zM31 424h223v24h-223v-24z
M332 661h67q14 5 24 13h-114q9 -8 23 -13zM448 787h-162q-1 -2 -2 -3.5t-2 -3.5h169q-1 2 -1.5 3.5t-1.5 3.5zM457 731h-66q-5 -8 -16 -10h80q1 2 1 4q0 3 1 6zM279 721h77q-9 2 -16 10h-63q0 -4 2 -10z" />
    <glyph glyph-name="FL00E6h" unicode="&#xe6;" horiz-adv-x="1072" 
d="M480 8h561v45h-561v-45zM480 68h561v42h-561v-42zM306 305h735v31h-735v-31zM31 483h1010v22h-1010v-22zM480 127h561v39h-561v-39zM1041 223h-561v-37h561v37zM306 364h735v28h-735v-28zM36 542h1005v19h-997q-5 -10 -8 -19zM86 602h955v15h-911q-25 -3 -44 -15zM31 8
h223v45h-223v-45zM31 68h223v42h-223v-42zM31 127h223v39h-223v-39zM31 186h223v37h-223v-37zM480 246h224v33h-224v-33zM31 246h223v33h-223v-33zM31 305h223v31h-223v-31zM31 364h223v28h-223v-28zM480 424h224v24h-224v-24zM31 424h223v24h-223v-24z" />
    <glyph glyph-name="FL00C7h" unicode="&#xe7;" horiz-adv-x="623" 
d="M99 8h493v45h-545q18 -31 52 -45zM38 68h554v42h-561v-11q0 -14 7 -31zM31 127h561v39h-561v-39zM592 223h-561v-37h561v37zM31 483h561v22h-561v-22zM206 -110h242v50h-242v-50zM36 542h556v19h-547q-5 -8 -9 -19zM448 -153v37h-242v-37h242zM31 246h223v33h-223v-33z
M592 617h-461q-23 -3 -44 -15h505v15zM31 305h223v31h-223v-31zM206 -41v-10h242v48h-112v-38h-130zM31 364h223v28h-223v-28zM31 424h223v24h-223v-24z" />
    <glyph glyph-name="FL00E8h" unicode="&#xe8;" horiz-adv-x="623" 
d="M99 8h493v45h-545q18 -31 52 -45zM38 68h554v42h-561v-11q0 -14 7 -31zM31 127h561v39h-561v-39zM31 223v-37h561v37h-561zM31 305h561v31h-561v-31zM592 392h-561v-28h561v28zM31 483h561v22h-561v-22zM36 542h556v19h-547q-5 -8 -9 -19zM31 246h223v33h-223v-33z
M87 602h505v15h-461q-23 -3 -44 -15zM31 424h223v24h-223v-24zM251 721h167v10h-174q2 -3 3.5 -5.5t3.5 -4.5zM347 661h71v13h-107q8 -5 17.5 -8t18.5 -5zM223 780h140q-2 2 -2.5 3.5t-2.5 3.5h-137q1 -2 1 -4q0 -1 1 -3z" />
    <glyph glyph-name="FL00E9h" unicode="&#xe9;" horiz-adv-x="623" 
d="M99 8h493v45h-545q18 -31 52 -45zM38 68h554v42h-561v-11q0 -14 7 -31zM31 127h561v39h-561v-39zM592 223h-561v-37h561v37zM31 305h561v31h-561v-31zM592 392h-561v-28h561v28zM31 483h561v22h-561v-22zM36 542h556v19h-547q-5 -8 -9 -19zM31 246h223v33h-223v-33z
M87 602h505v15h-461q-23 -3 -44 -15zM31 424h223v24h-223v-24zM425 731h-174v-10h166q2 2 4 4.5t4 5.5zM358 674h-107v-13h70q20 5 37 13zM306 780h140q0 2 0.5 3.5t0.5 3.5h-136q-1 -3 -5 -7z" />
    <glyph glyph-name="FL00EAh" unicode="&#xea;" horiz-adv-x="623" 
d="M99 8h493v45h-545q18 -31 52 -45zM38 68h554v42h-561v-11q0 -14 7 -31zM31 127h561v39h-561v-39zM592 223h-561v-37h561v37zM31 305h561v31h-561v-31zM592 392h-561v-28h561v28zM31 483h561v22h-561v-22zM36 542h556v19h-547q-5 -8 -9 -19zM31 246h223v33h-223v-33z
M87 602h505v15h-461q-23 -3 -44 -15zM31 424h223v24h-223v-24zM481 787h-305q-3 -4 -7 -7h320q-3 2 -8 7zM399 661h131v13h-131v-13zM129 661h131v13h-131v-13zM520 731h-158q4 -2 8 -4.5t7 -5.5h147q-2 6 -4 10zM297 731h-159q-1 -4 -3 -10h146q7 5 16 10z" />
    <glyph glyph-name="FL00EBh" unicode="&#xeb;" horiz-adv-x="623" 
d="M99 8h493v45h-545q18 -31 52 -45zM38 68h554v42h-561v-11q0 -14 7 -31zM31 127h561v39h-561v-39zM31 223v-37h561v37h-561zM31 305h561v31h-561v-31zM31 392v-28h561v28h-561zM31 483h561v22h-561v-22zM36 542h556v19h-547q-5 -8 -9 -19zM31 246h223v33h-223v-33zM87 602
h505v15h-461q-23 -3 -44 -15zM31 424h223v24h-223v-24zM309 731h-180q0 -4 2 -10h176q1 2 1 4q0 3 1 6zM526 731h-179q0 -4 2 -10h175q1 2 1 4q0 3 1 6zM275 674h-114q9 -8 23 -13h67q14 5 24 13zM493 674h-113q9 -8 23 -13h67q13 4 23 13zM134 780h169q-1 2 -1.5 3.5
t-1.5 3.5h-162q-1 -2 -2 -3.5t-2 -3.5zM352 780h168q-2 4 -3 7h-162q-1 -2 -1.5 -3.5t-1.5 -3.5z" />
    <glyph glyph-name="FL00ECh" unicode="&#xec;" horiz-adv-x="286" 
d="M31 8h224v45h-224v-45zM31 68h224v42h-224v-42zM31 127h224v39h-224v-39zM31 186h224v37h-224v-37zM31 246h224v33h-224v-33zM31 305h224v31h-224v-31zM31 364h224v28h-224v-28zM31 424h224v24h-224v-24zM31 483h224v22h-224v-22zM31 542h224v19h-224v-19zM31 602h224v15
h-224v-15zM75 721h167v10h-174q2 -3 3.5 -5.5t3.5 -4.5zM171 661h71v13h-107q8 -5 17.5 -8t18.5 -5zM47 780h140q-4 4 -6 7h-136q1 -2 1 -4q0 -1 1 -3z" />
    <glyph glyph-name="FL00EDh" unicode="&#xed;" horiz-adv-x="286" 
d="M31 8h224v45h-224v-45zM31 68h224v42h-224v-42zM31 127h224v39h-224v-39zM31 186h224v37h-224v-37zM31 246h224v33h-224v-33zM31 305h224v31h-224v-31zM31 364h224v28h-224v-28zM31 424h224v24h-224v-24zM31 483h224v22h-224v-22zM31 542h224v19h-224v-19zM31 602h224v15
h-224v-15zM218 731h-174v-10h166q2 2 4 4.5t4 5.5zM151 674h-107v-13h70q20 5 37 13zM99 780h140q0 2 0.5 3.5t0.5 3.5h-136q-1 -3 -5 -7z" />
    <glyph glyph-name="FL00EEh" unicode="&#xee;" horiz-adv-x="286" 
d="M31 8h224v45h-224v-45zM31 68h224v42h-224v-42zM31 127h224v39h-224v-39zM31 186h224v37h-224v-37zM31 246h224v33h-224v-33zM31 305h224v31h-224v-31zM31 364h224v28h-224v-28zM31 424h224v24h-224v-24zM31 483h224v22h-224v-22zM31 542h224v19h-224v-19zM31 602h224v15
h-224v-15zM297 787h-304l-7 -7h319q-3 2 -8 7zM-55 661h131v13h-131v-13zM215 661h131v13h-131v-13zM336 731h-158q4 -2 8 -4.5t7 -5.5h147q-2 6 -4 10zM113 731h-158q-2 -4 -4 -10h146q7 5 16 10z" />
    <glyph glyph-name="FL00EFh" unicode="&#xef;" horiz-adv-x="286" 
d="M31 8h224v45h-224v-45zM31 68h224v42h-224v-42zM31 127h224v39h-224v-39zM31 186h224v37h-224v-37zM31 246h224v33h-224v-33zM31 305h224v31h-224v-31zM31 364h224v28h-224v-28zM31 424h224v24h-224v-24zM31 483h224v22h-224v-22zM31 542h224v19h-224v-19zM255 617h-224
v-15h224v15zM-53 721h176q1 2 1 4q0 3 1 6h-180q1 -3 1 -6q0 -2 1 -4zM165 721h175q1 2 1 4q0 3 1 6h-179q0 -4 2 -10zM0 661h67q14 5 24 13h-113q10 -8 22 -13zM219 661h67q13 4 23 13h-113q9 -8 23 -13zM116 787h-162q-1 -3 -3 -7h168q-1 2 -1.5 3.5t-1.5 3.5zM333 787
h-162q-1 -2 -1.5 -3.5t-1.5 -3.5h168q-2 4 -3 7z" />
    <glyph glyph-name="FL00F0h" unicode="&#xf0;" 
d="M703 99v11h-673v-11q1 -14 8 -31h657q6 13 8 31zM687 53h-641q19 -31 51 -45h538q32 14 52 45zM30 127h673v39h-673v-39zM30 223v-37h673v37h-673zM30 305h673v31h-673v-31zM30 364h673v28h-673v-28zM30 483h673v22h-673v-22zM689 561h-659v-19h668q-2 5 -4.5 9.5
t-4.5 9.5zM418 617v1h-111v-1h-277v-15h617q-21 12 -44 15h-185zM30 246h223v33h-223v-33zM480 246h223v33h-223v-33zM480 424h223v24h-223v-24zM307 661h111v13h-111v-13z" />
    <glyph glyph-name="FL00F1h" unicode="&#xf1;" horiz-adv-x="736" 
d="M254 437l37 -13h414v24h-674v-24h223v13zM31 483h674v22h-674v-22zM31 8h223v45h-223v-45zM482 8h223v45h-223v-45zM482 68h223v42h-223v-42zM31 68h223v42h-223v-42zM482 127h223v39h-223v-39zM31 127h223v39h-223v-39zM482 186h223v37h-223v-37zM31 186h223v37h-223
v-37zM462 364h243v28h-323zM31 542h431l-53 19h-378v-19zM482 246h223v33h-223v-33zM31 246h223v33h-223v-33zM482 305h223v31h-223v-31zM31 305h223v31h-223v-31zM31 364h223v28h-223v-28zM482 542h223v19h-223v-19zM31 617v-15h264l-41 15h-223zM705 617h-223v-15h223v15z
M597 731h-286q7 -5 13 -10h266q2 2 3.5 4.5t3.5 5.5zM539 674h-166q10 -8 24 -13h110q19 5 32 13zM151 780h244q-4 3 -7 7h-231q-2 -3 -6 -7zM119 661h115v13h-115v-13zM124 721h126q5 5 13 10h-137q-1 -3 -1 -6q0 -2 -1 -4zM616 787h-121q-2 -5 -4 -7h124q0 4 1 7z" />
    <glyph glyph-name="FL00F2h" unicode="&#xf2;" 
d="M38 68h658q7 17 8 31v11h-673v-11q0 -14 7 -31zM99 8h536q34 14 52 45h-640q18 -31 52 -45zM31 127h673v39h-673v-39zM254 222v1h-223v-37h673v37h-223v-1h-227zM31 483h673v22h-673v-22zM35 542h664q-2 5 -4 9.5t-5 9.5h-646q-5 -8 -9 -19zM85 602h563q-19 12 -43 15
h-474q-25 -3 -46 -15zM31 246h223v33h-223v-33zM481 246h223v33h-223v-33zM31 305h223v31h-223v-31zM481 305h223v31h-223v-31zM31 364h223v28h-223v-28zM481 364h223v28h-223v-28zM31 424h223v24h-223v-24zM481 424h223v24h-223v-24zM286 721h167v10h-174q2 -3 3.5 -5.5
t3.5 -4.5zM382 661h71v13h-107q8 -5 17.5 -8t18.5 -5zM258 780h140q-2 2 -2.5 3.5t-2.5 3.5h-137q1 -2 1 -4q0 -1 1 -3z" />
    <glyph glyph-name="FL00F3h" unicode="&#xf3;" 
d="M39 68h656q8 15 9 31v11h-673v-11q0 -15 8 -31zM99 8h537q32 14 51 45h-640q20 -31 52 -45zM31 127h673v39h-673v-39zM254 222v1h-223v-37h673v37h-223v-1h-227zM31 483h673v22h-673v-22zM36 542h663q-4 12 -8 19h-647q-5 -10 -8 -19zM86 602h566q-23 12 -48 15h-474
q-25 -3 -44 -15zM31 246h223v33h-223v-33zM481 246h223v33h-223v-33zM31 305h223v31h-223v-31zM481 305h223v31h-223v-31zM31 364h223v28h-223v-28zM481 364h223v28h-223v-28zM31 424h223v24h-223v-24zM481 424h223v24h-223v-24zM456 731h-174v-10h166q2 2 4 4.5t4 5.5z
M389 674h-107v-13h70q20 5 37 13zM337 780h140q0 2 0.5 3.5t0.5 3.5h-136q-1 -3 -5 -7z" />
    <glyph glyph-name="FL00F4h" unicode="&#xf4;" 
d="M39 68h656q8 15 9 31v11h-673v-11q0 -15 8 -31zM99 8h537q32 14 51 45h-640q20 -31 52 -45zM31 127h673v39h-673v-39zM254 222v1h-223v-37h673v37h-223v-1h-227zM31 483h673v22h-673v-22zM36 542h663q-4 12 -8 19h-647q-5 -10 -8 -19zM86 602h566q-23 12 -48 15h-474
q-25 -3 -44 -15zM31 246h223v33h-223v-33zM481 246h223v33h-223v-33zM31 305h223v31h-223v-31zM481 305h223v31h-223v-31zM31 364h223v28h-223v-28zM481 364h223v28h-223v-28zM31 424h223v24h-223v-24zM481 424h223v24h-223v-24zM519 787h-305q-3 -4 -7 -7h320q-3 2 -8 7z
M437 661h131v13h-131v-13zM167 661h131v13h-131v-13zM558 731h-158q4 -2 8 -4.5t7 -5.5h147q-2 6 -4 10zM335 731h-159q-1 -4 -3 -10h146q7 5 16 10z" />
    <glyph glyph-name="FL00F5h" unicode="&#xf5;" 
d="M704 99v11h-673v-11q0 -15 8 -31h656q8 15 9 31zM687 53h-640q20 -31 52 -45h537q32 14 51 45zM31 127h673v39h-673v-39zM254 222v1h-223v-37h673v37h-223v-1h-227zM31 483h673v22h-673v-22zM691 561h-647q-5 -10 -8 -19h663q-4 12 -8 19zM604 617h-474q-25 -3 -44 -15
h566q-23 12 -48 15zM31 246h223v33h-223v-33zM481 246h223v33h-223v-33zM31 305h223v31h-223v-31zM481 305h223v31h-223v-31zM481 364h223v28h-223v-28zM31 364h223v28h-223v-28zM31 424h223v24h-223v-24zM481 424h223v24h-223v-24zM599 731h-286q7 -5 13 -10h266
q2 2 3.5 4.5t3.5 5.5zM541 674h-166q10 -8 24 -13h110q19 5 32 13zM153 780h244q-4 3 -7 7h-231q-2 -3 -6 -7zM121 661h115v13h-115v-13zM126 721h126q5 5 13 10h-137q-1 -3 -1 -6q0 -2 -1 -4zM618 787h-121q-2 -5 -4 -7h124q0 4 1 7z" />
    <glyph glyph-name="FL00F6h" unicode="&#xf6;" 
d="M704 99v11h-673v-11q0 -15 8 -31h656q8 15 9 31zM687 53h-640q20 -31 52 -45h537q32 14 51 45zM31 127h673v39h-673v-39zM481 222h-227v1h-223v-37h673v37h-223v-1zM31 483h673v22h-673v-22zM691 561h-647q-5 -10 -8 -19h663q-4 12 -8 19zM604 617h-474q-25 -3 -44 -15
h566q-23 12 -48 15zM31 246h223v33h-223v-33zM481 246h223v33h-223v-33zM31 305h223v31h-223v-31zM481 305h223v31h-223v-31zM31 364h223v28h-223v-28zM481 364h223v28h-223v-28zM31 424h223v24h-223v-24zM481 424h223v24h-223v-24zM171 721h176q1 2 1 4q0 3 1 6h-180
q0 -4 2 -10zM389 721h175q1 2 1 4q0 3 1 6h-179q0 -4 2 -10zM224 661h67q14 5 24 13h-114q9 -8 23 -13zM443 661h67q13 4 23 13h-113q9 -8 23 -13zM340 787h-162q-1 -2 -2 -3.5t-2 -3.5h169q-1 2 -1.5 3.5t-1.5 3.5zM557 787h-162q-1 -2 -1.5 -3.5t-1.5 -3.5h168q-2 4 -3 7z
" />
    <glyph glyph-name="FL00F7h" unicode="&#xf7;" horiz-adv-x="630" 
d="M31 305h568v31h-568v-31zM599 258v21h-568v-21h568zM240 68h144q14 17 19 42h-180q3 -23 17 -42zM394 166h-162q-10 -20 -10 -39h182q-2 22 -10 39zM222 494v-11h181q1 3 1 11q0 7 -1 11h-181v-11zM254 424h116q7 5 12 11t9 13h-157q9 -15 20 -24zM31 369v-5h568v5h-568z
M312 216q-20 0 -37.5 -8t-29.5 -22h135q-13 14 -30.5 22t-37.5 8zM375 561h-125q-5 -5 -9 -9.5t-7 -9.5h156q-5 9 -15 19zM312 34q32 0 57 19h-114q25 -19 57 -19z" />
    <glyph glyph-name="FL00F8h" unicode="&#xf8;" 
d="M39 68h656q8 15 9 31v11h-673v-11q0 -15 8 -31zM99 8h537q32 14 51 45h-640q20 -31 52 -45zM31 127h673v39h-673v-39zM481 222h-162l1 1h-289v-37h673v37h-223v-1zM481 305h223v31h-673v-31h409l41 28v-28zM31 483h673v22h-673v-22zM36 542h663q-4 12 -8 19h-647
q-5 -10 -8 -19zM31 246h323l48 33h-371v-33zM294 364h410v28h-370zM86 602h566q-23 12 -48 15h-474q-25 -3 -44 -15zM380 424h324v24h-290zM481 246h223v33h-223v-33zM31 364h223v28h-223v-28zM31 424h223v24h-223v-24z" />
    <glyph glyph-name="FL00F9h" unicode="&#xf9;" 
d="M39 68h656q8 15 9 31v11h-673v-11q0 -15 8 -31zM99 8h537q32 14 51 45h-640q20 -31 52 -45zM31 127h673v39h-673v-39zM481 222h-227v1h-223v-37h673v37h-223v-1zM31 246h223v33h-223v-33zM481 246h223v33h-223v-33zM481 305h223v31h-223v-31zM31 305h223v31h-223v-31z
M31 364h223v28h-223v-28zM481 364h223v28h-223v-28zM31 424h223v24h-223v-24zM481 424h223v24h-223v-24zM31 483h223v22h-223v-22zM481 483h223v22h-223v-22zM481 542h223v19h-223v-19zM31 542h223v19h-223v-19zM704 617h-223v-15h223v15zM254 617h-223v-15h223v15zM286 721
h167v10h-174q2 -3 3.5 -5.5t3.5 -4.5zM382 661h71v13h-107q8 -5 17.5 -8t18.5 -5zM393 787h-137q1 -2 1 -4q0 -1 1 -3h140q-2 2 -2.5 3.5t-2.5 3.5z" />
    <glyph glyph-name="FL00FAh" unicode="&#xfa;" 
d="M39 68h656q8 15 9 31v11h-673v-11q0 -15 8 -31zM99 8h537q32 14 51 45h-640q20 -31 52 -45zM31 127h673v39h-673v-39zM481 222h-227v1h-223v-37h673v37h-223v-1zM31 246h223v33h-223v-33zM481 246h223v33h-223v-33zM481 305h223v31h-223v-31zM31 305h223v31h-223v-31z
M31 364h223v28h-223v-28zM481 364h223v28h-223v-28zM31 424h223v24h-223v-24zM481 424h223v24h-223v-24zM31 483h223v22h-223v-22zM481 483h223v22h-223v-22zM481 542h223v19h-223v-19zM31 542h223v19h-223v-19zM704 617h-223v-15h223v15zM254 617h-223v-15h223v15zM456 731
h-174v-10h166q2 2 4 4.5t4 5.5zM389 674h-107v-13h70q20 5 37 13zM478 787h-136q-1 -3 -5 -7h140q0 2 0.5 3.5t0.5 3.5z" />
    <glyph glyph-name="FL00FBh" unicode="&#xfb;" 
d="M39 68h656q8 15 9 31v11h-673v-11q0 -15 8 -31zM99 8h537q32 14 51 45h-640q20 -31 52 -45zM31 127h673v39h-673v-39zM481 222h-227v1h-223v-37h673v37h-223v-1zM31 246h223v33h-223v-33zM481 246h223v33h-223v-33zM31 305h223v31h-223v-31zM481 305h223v31h-223v-31z
M31 364h223v28h-223v-28zM481 364h223v28h-223v-28zM31 424h223v24h-223v-24zM481 424h223v24h-223v-24zM31 483h223v22h-223v-22zM481 483h223v22h-223v-22zM481 542h223v19h-223v-19zM31 542h223v19h-223v-19zM704 617h-223v-15h223v15zM254 617h-223v-15h223v15zM519 787
h-305q-3 -4 -7 -7h320q-3 2 -8 7zM167 661h131v13h-131v-13zM437 661h131v13h-131v-13zM415 721h147q-2 6 -4 10h-158q4 -2 8 -4.5t7 -5.5zM173 721h146q7 5 16 10h-159q-1 -4 -3 -10z" />
    <glyph glyph-name="FL00FCh" unicode="&#xfc;" 
d="M39 68h656q8 15 9 31v11h-673v-11q0 -15 8 -31zM99 8h537q32 14 51 45h-640q20 -31 52 -45zM31 127h673v39h-673v-39zM481 222h-227v1h-223v-37h673v37h-223v-1zM31 246h223v33h-223v-33zM481 246h223v33h-223v-33zM31 305h223v31h-223v-31zM481 305h223v31h-223v-31z
M481 364h223v28h-223v-28zM31 364h223v28h-223v-28zM31 424h223v24h-223v-24zM481 424h223v24h-223v-24zM481 483h223v22h-223v-22zM31 483h223v22h-223v-22zM481 542h223v19h-223v-19zM31 542h223v19h-223v-19zM254 617h-223v-15h223v15zM704 617h-223v-15h223v15zM171 721
h176q1 2 1 4q0 3 1 6h-180q0 -4 2 -10zM389 721h175q1 2 1 4q0 3 1 6h-179q0 -4 2 -10zM224 661h67q14 5 24 13h-114q9 -8 23 -13zM443 661h67q13 4 23 13h-113q9 -8 23 -13zM340 787h-162q-1 -2 -2 -3.5t-2 -3.5h169q-1 2 -1.5 3.5t-1.5 3.5zM557 787h-162q-1 -2 -1.5 -3.5
t-1.5 -3.5h168q-2 4 -3 7z" />
    <glyph glyph-name="FL00FDh" unicode="&#xfd;" 
d="M689 53h-587v-45h534q34 14 53 45zM704 100v10h-602v-42h594q7 16 8 32zM102 127h602v39h-602v-39zM102 186h602v37h-602v-37zM73 305h631v31h-659q5 -9 12.5 -16.5t15.5 -14.5zM33 364h671v28h-673v-12q0 -5 0.5 -8.5t1.5 -7.5zM481 246h223v33h-223v-33zM31 424h223v24
h-223v-24zM481 424h223v24h-223v-24zM31 483h223v22h-223v-22zM481 483h223v22h-223v-22zM31 542h223v19h-223v-19zM481 542h223v19h-223v-19zM31 602h223v15h-223v-15zM481 602h223v15h-223v-15zM456 731h-174v-10h166q2 2 4 4.5t4 5.5zM389 674h-107v-13h70q20 5 37 13z
M337 780h140q0 2 0.5 3.5t0.5 3.5h-136q-1 -3 -5 -7z" />
    <glyph glyph-name="FL00FEh" unicode="&#xfe;" 
d="M31 364h673v28h-673v-28zM696 448h-665v-24h672q-2 6 -3.5 12t-3.5 12zM640 505h-609v-22h641q-12 12 -32 22zM682 223h-377v-37h331q27 12 46 37zM704 277v2h-399v-33h390q8 15 9 31zM31 8h224v45h-224v-45zM31 68h224v42h-224v-42zM31 127h224v39h-224v-39zM31 186h224
v37h-224v-37zM31 246h224v33h-224v-33zM31 305h224v31h-224v-31zM481 305h223v31h-223v-31zM31 542h224v19h-224v-19zM31 602h224v15h-224v-15z" />
    <glyph glyph-name="FL00FFh" unicode="&#xff;" 
d="M689 53h-587v-45h534q34 14 53 45zM704 100v10h-602v-42h594q7 16 8 32zM102 127h602v39h-602v-39zM102 223v-37h602v37h-602zM73 305h631v31h-659q5 -9 12.5 -16.5t15.5 -14.5zM31 392v-12q0 -5 0.5 -8.5t1.5 -7.5h671v28h-673zM481 246h223v33h-223v-33zM31 424h223v24
h-223v-24zM481 424h223v24h-223v-24zM31 483h223v22h-223v-22zM481 483h223v22h-223v-22zM31 542h223v19h-223v-19zM481 542h223v19h-223v-19zM254 617h-223v-15h223v15zM704 617h-223v-15h223v15zM171 721h176q1 2 1 4q0 3 1 6h-180q0 -4 2 -10zM389 721h175q1 2 1 4
q0 3 1 6h-179q0 -4 2 -10zM224 661h67q14 5 24 13h-114q9 -8 23 -13zM443 661h67q13 4 23 13h-113q9 -8 23 -13zM340 787h-162q-1 -2 -2 -3.5t-2 -3.5h169q-1 2 -1.5 3.5t-1.5 3.5zM557 787h-162q-1 -2 -1.5 -3.5t-1.5 -3.5h168q-2 4 -3 7z" />
  </font>
</defs>
</svg>
